<?xml version="1.0" encoding="utf-8"?>
<svg version="1.1" xmlns:xlink="http://www.w3.org/1999/xlink" width="20px" height="15px" xmlns="http://www.w3.org/2000/svg">
  <g transform="matrix(1 0 0 1 -1219 -232 )">
    <path d="M 18.4704033525406 8.97017045454546  C 18.5961236249345 8.81392045454545  18.6589837611315 8.67542613636364  18.6589837611315 8.5546875  C 18.6589837611315 8.30610795454545  18.4738955823293 8.18181818181818  18.103719224725 8  L 6.70508119434259 8  C 6.42570281124498 8.18181818181818  6.12711716430941 8.25816761363636  5.80932425353588 8.41086647727273  C 5.49153134276235 8.56356534090909  5.24183691286887 8.75  5.06024096385542 8.97017045454546  L 1.9800942902043 12.8373579545455  C 1.85437401781037 13.0078125  1.79151388161341 13.1498579545455  1.79151388161341 13.2634943181818  C 1.79151388161341 13.5120738636364  1.97660206041558 13.6363636363636  2.34677841801991 13.6363636363636  L 13.7454164484023 13.6363636363636  C 14.0247948314999 13.6363636363636  14.3251265933298 13.5582386363636  14.6464117338921 13.4019886363636  C 14.9676968744543 13.2457386363636  15.2156451894535 13.0575284090909  15.3902566788895 12.8373579545455  L 18.4704033525406 8.97017045454546  Z M 5.23834468308015 7.18572443181818  C 5.74122577265584 6.94069602272727  6.23013794307666 6.81818181818182  6.70508119434259 6.81818181818182  L 14.7511786275537 6.81818181818182  L 14.7511786275537 5.11363636363636  C 14.7511786275537 4.82954545454545  14.6533961934695 4.58806818181818  14.4578313253012 4.38920454545455  C 14.2622664571329 4.19034090909091  14.0247948314999 4.09090909090909  13.7454164484023 4.09090909090909  L 7.71084337349398 4.09090909090909  C 7.43146499039637 4.09090909090909  7.1939933647634 3.99147727272727  6.99842849659508 3.79261363636364  C 6.80286362842675 3.59375  6.70508119434259 3.35227272727273  6.70508119434259 3.06818181818182  L 6.70508119434259 2.38636363636364  C 6.70508119434259 2.10227272727273  6.60729876025843 1.86079545454545  6.4117338920901 1.66193181818182  C 6.21616902392177 1.46306818181818  5.97869739828881 1.36363636363636  5.6993190151912 1.36363636363636  L 2.34677841801991 1.36363636363636  C 2.0674000349223 1.36363636363636  1.82992840928933 1.46306818181818  1.63436354112101 1.66193181818182  C 1.43879867295268 1.86079545454545  1.34101623886852 2.10227272727273  1.34101623886852 2.38636363636364  L 1.34101623886852 11.4737215909091  L 4.02304871660555 8.11789772727273  C 4.33036493801292 7.74147727272727  4.73546359350445 7.43075284090909  5.23834468308015 7.18572443181818  Z M 19.8428496595076 7.83025568181818  C 19.9476165531692 8.05752840909091  20 8.29900568181818  20 8.5546875  C 20 8.99502840909091  19.8393574297189 9.42116477272727  19.5180722891566 9.83309659090909  L 16.4274489261393 13.7002840909091  C 16.1271171643094 14.0767045454545  15.7220185088179 14.3874289772727  15.2121529596647 14.6324573863636  C 14.7022874105116 14.8774857954545  14.2133752400908 15  13.7454164484023 15  L 2.34677841801991 15  C 1.70420813689541 15  1.15243583027763 14.765625  0.691461498166579 14.296875  C 0.230487166055526 13.828125  0 13.2670454545455  0 12.6136363636364  L 0 2.38636363636364  C 0 1.73295454545454  0.230487166055526 1.171875  0.691461498166579 0.703125  C 1.15243583027763 0.234375  1.70420813689541 0  2.34677841801991 0  L 5.6993190151912 0  C 6.3418892963157 0  6.89366160293347 0.234375  7.35463593504453 0.703125  C 7.81561026715558 1.171875  8.04609743321111 1.73295454545454  8.04609743321111 2.38636363636364  L 8.04609743321111 2.72727272727273  L 13.7454164484023 2.72727272727273  C 14.3879867295268 2.72727272727273  14.9397590361446 2.96164772727273  15.4007333682556 3.43039772727273  C 15.8617077003667 3.89914772727273  16.0921948664222 4.46022727272727  16.0921948664222 5.11363636363636  L 16.0921948664222 6.81818181818182  L 18.103719224725 6.81818181818182  C 18.4808800419068 6.81818181818182  18.82661079099 6.90518465909091  19.1409114719749 7.07919034090909  C 19.4552121529597 7.25319602272727  19.6891915488039 7.50355113636364  19.8428496595076 7.83025568181818  Z " fill-rule="nonzero" fill="#0000ff" stroke="none" transform="matrix(1 0 0 1 1219 232 )" />
  </g>
</svg>