<?xml version="1.0" encoding="utf-8"?>
<svg version="1.1" xmlns:xlink="http://www.w3.org/1999/xlink" width="12px" height="12px" viewBox="148 90.5  12 12" xmlns="http://www.w3.org/2000/svg">
  <path d="M 154 90.5  C 157.36 90.5  160 93.14  160 96.5  C 160 99.86  157.36 102.5  154 102.5  C 150.64 102.5  148 99.86  148 96.5  C 148 93.14  150.64 90.5  154 90.5  Z " fill-rule="nonzero" fill="#ffffff" stroke="none" />
  <path d="M 154 91  C 157.08 91  159.5 93.42  159.5 96.5  C 159.5 99.58  157.08 102  154 102  C 150.92 102  148.5 99.58  148.5 96.5  C 148.5 93.42  150.92 91  154 91  Z " stroke-width="1" stroke="#797979" fill="none" />
  <path d="M 154 99.5  C 152.32 99.5  151 98.18  151 96.5  C 151 94.82  152.32 93.5  154 93.5  C 155.68 93.5  157 94.82  157 96.5  C 157 98.18  155.68 99.5  154 99.5  " fill-rule="nonzero" fill="#797979" stroke="none" />
</svg>