<?xml version="1.0" encoding="utf-8"?>
<svg version="1.1" xmlns:xlink="http://www.w3.org/1999/xlink" width="12px" height="12px" viewBox="290 90.5  12 12" xmlns="http://www.w3.org/2000/svg">
  <path d="M 296 90.5  C 299.36 90.5  302 93.14  302 96.5  C 302 99.86  299.36 102.5  296 102.5  C 292.64 102.5  290 99.86  290 96.5  C 290 93.14  292.64 90.5  296 90.5  Z " fill-rule="nonzero" fill="#ffffff" stroke="none" />
  <path d="M 296 91  C 299.08 91  301.5 93.42  301.5 96.5  C 301.5 99.58  299.08 102  296 102  C 292.92 102  290.5 99.58  290.5 96.5  C 290.5 93.42  292.92 91  296 91  Z " stroke-width="1" stroke="#797979" fill="none" />
  <path d="M 296 99.5  C 294.32 99.5  293 98.18  293 96.5  C 293 94.82  294.32 93.5  296 93.5  C 297.68 93.5  299 94.82  299 96.5  C 299 98.18  297.68 99.5  296 99.5  " fill-rule="nonzero" fill="#797979" stroke="none" />
</svg>