<?xml version="1.0" encoding="utf-8"?>
<svg version="1.1" xmlns:xlink="http://www.w3.org/1999/xlink" width="12px" height="12px" viewBox="574 90.5  12 12" xmlns="http://www.w3.org/2000/svg">
  <path d="M 580 90.5  C 583.36 90.5  586 93.14  586 96.5  C 586 99.86  583.36 102.5  580 102.5  C 576.64 102.5  574 99.86  574 96.5  C 574 93.14  576.64 90.5  580 90.5  Z " fill-rule="nonzero" fill="#ffffff" stroke="none" />
  <path d="M 580 91  C 583.08 91  585.5 93.42  585.5 96.5  C 585.5 99.58  583.08 102  580 102  C 576.92 102  574.5 99.58  574.5 96.5  C 574.5 93.42  576.92 91  580 91  Z " stroke-width="1" stroke="#797979" fill="none" />
  <path d="M 580 99.5  C 578.32 99.5  577 98.18  577 96.5  C 577 94.82  578.32 93.5  580 93.5  C 581.68 93.5  583 94.82  583 96.5  C 583 98.18  581.68 99.5  580 99.5  " fill-rule="nonzero" fill="#797979" stroke="none" />
</svg>