<?xml version="1.0" encoding="utf-8"?>
<svg version="1.1" xmlns:xlink="http://www.w3.org/1999/xlink" width="12px" height="12px" viewBox="219 92  12 12" xmlns="http://www.w3.org/2000/svg">
  <path d="M 225 92  C 228.36 92  231 94.64  231 98  C 231 101.36  228.36 104  225 104  C 221.64 104  219 101.36  219 98  C 219 94.64  221.64 92  225 92  Z " fill-rule="nonzero" fill="#ffffff" stroke="none" />
  <path d="M 225 92.5  C 228.08 92.5  230.5 94.92  230.5 98  C 230.5 101.08  228.08 103.5  225 103.5  C 221.92 103.5  219.5 101.08  219.5 98  C 219.5 94.92  221.92 92.5  225 92.5  Z " stroke-width="1" stroke="#aaaaaa" fill="none" />
  <path d="M 225 101  C 223.32 101  222 99.68  222 98  C 222 96.32  223.32 95  225 95  C 226.68 95  228 96.32  228 98  C 228 99.68  226.68 101  225 101  " fill-rule="nonzero" fill="#aaaaaa" stroke="none" />
</svg>