<?xml version="1.0" encoding="utf-8"?>
<svg version="1.1" xmlns:xlink="http://www.w3.org/1999/xlink" width="12px" height="12px" viewBox="290 92  12 12" xmlns="http://www.w3.org/2000/svg">
  <path d="M 296 92  C 299.36 92  302 94.64  302 98  C 302 101.36  299.36 104  296 104  C 292.64 104  290 101.36  290 98  C 290 94.64  292.64 92  296 92  Z " fill-rule="nonzero" fill="#ffffff" stroke="none" />
  <path d="M 296 92.5  C 299.08 92.5  301.5 94.92  301.5 98  C 301.5 101.08  299.08 103.5  296 103.5  C 292.92 103.5  290.5 101.08  290.5 98  C 290.5 94.92  292.92 92.5  296 92.5  Z " stroke-width="1" stroke="#797979" fill="none" />
  <path d="M 296 101  C 294.32 101  293 99.68  293 98  C 293 96.32  294.32 95  296 95  C 297.68 95  299 96.32  299 98  C 299 99.68  297.68 101  296 101  " fill-rule="nonzero" fill="#797979" stroke="none" />
</svg>