<?xml version="1.0" encoding="utf-8"?>
<svg version="1.1" xmlns:xlink="http://www.w3.org/1999/xlink" width="12px" height="12px" viewBox="361 90.5  12 12" xmlns="http://www.w3.org/2000/svg">
  <path d="M 367 90.5  C 370.36 90.5  373 93.14  373 96.5  C 373 99.86  370.36 102.5  367 102.5  C 363.64 102.5  361 99.86  361 96.5  C 361 93.14  363.64 90.5  367 90.5  Z " fill-rule="nonzero" fill="#ffffff" stroke="none" />
  <path d="M 367 91  C 370.08 91  372.5 93.42  372.5 96.5  C 372.5 99.58  370.08 102  367 102  C 363.92 102  361.5 99.58  361.5 96.5  C 361.5 93.42  363.92 91  367 91  Z " stroke-width="1" stroke="#797979" fill="none" />
  <path d="M 367 99.5  C 365.32 99.5  364 98.18  364 96.5  C 364 94.82  365.32 93.5  367 93.5  C 368.68 93.5  370 94.82  370 96.5  C 370 98.18  368.68 99.5  367 99.5  " fill-rule="nonzero" fill="#797979" stroke="none" />
</svg>