<?xml version="1.0" encoding="utf-8"?>
<svg version="1.1" xmlns:xlink="http://www.w3.org/1999/xlink" width="12px" height="12px" viewBox="361 92  12 12" xmlns="http://www.w3.org/2000/svg">
  <path d="M 367 92  C 370.36 92  373 94.64  373 98  C 373 101.36  370.36 104  367 104  C 363.64 104  361 101.36  361 98  C 361 94.64  363.64 92  367 92  Z " fill-rule="nonzero" fill="#ffffff" stroke="none" />
  <path d="M 367 92.5  C 370.08 92.5  372.5 94.92  372.5 98  C 372.5 101.08  370.08 103.5  367 103.5  C 363.92 103.5  361.5 101.08  361.5 98  C 361.5 94.92  363.92 92.5  367 92.5  Z " stroke-width="1" stroke="#797979" fill="none" />
  <path d="M 367 101  C 365.32 101  364 99.68  364 98  C 364 96.32  365.32 95  367 95  C 368.68 95  370 96.32  370 98  C 370 99.68  368.68 101  367 101  " fill-rule="nonzero" fill="#797979" stroke="none" />
</svg>