<?xml version="1.0" encoding="utf-8"?>
<svg version="1.1" xmlns:xlink="http://www.w3.org/1999/xlink" width="12px" height="12px" viewBox="361 143.5  12 12" xmlns="http://www.w3.org/2000/svg">
  <path d="M 367 143.5  C 370.36 143.5  373 146.14  373 149.5  C 373 152.86  370.36 155.5  367 155.5  C 363.64 155.5  361 152.86  361 149.5  C 361 146.14  363.64 143.5  367 143.5  Z " fill-rule="nonzero" fill="#f0f0f0" stroke="none" />
  <path d="M 367 144  C 370.08 144  372.5 146.42  372.5 149.5  C 372.5 152.58  370.08 155  367 155  C 363.92 155  361.5 152.58  361.5 149.5  C 361.5 146.42  363.92 144  367 144  Z " stroke-width="1" stroke="#797979" fill="none" />
  <path d="M 367 152.5  C 365.32 152.5  364 151.18  364 149.5  C 364 147.82  365.32 146.5  367 146.5  C 368.68 146.5  370 147.82  370 149.5  C 370 151.18  368.68 152.5  367 152.5  " fill-rule="nonzero" fill="#797979" stroke="none" />
</svg>