<?xml version="1.0" encoding="utf-8"?>
<svg version="1.1" xmlns:xlink="http://www.w3.org/1999/xlink" width="12px" height="12px" viewBox="503 92  12 12" xmlns="http://www.w3.org/2000/svg">
  <path d="M 509 92  C 512.36 92  515 94.64  515 98  C 515 101.36  512.36 104  509 104  C 505.64 104  503 101.36  503 98  C 503 94.64  505.64 92  509 92  Z " fill-rule="nonzero" fill="#ffffff" stroke="none" />
  <path d="M 509 92.5  C 512.08 92.5  514.5 94.92  514.5 98  C 514.5 101.08  512.08 103.5  509 103.5  C 505.92 103.5  503.5 101.08  503.5 98  C 503.5 94.92  505.92 92.5  509 92.5  Z " stroke-width="1" stroke="#797979" fill="none" />
  <path d="M 509 101  C 507.32 101  506 99.68  506 98  C 506 96.32  507.32 95  509 95  C 510.68 95  512 96.32  512 98  C 512 99.68  510.68 101  509 101  " fill-rule="nonzero" fill="#797979" stroke="none" />
</svg>