<?xml version="1.0" encoding="utf-8"?>
<svg version="1.1" xmlns:xlink="http://www.w3.org/1999/xlink" width="12px" height="12px" viewBox="503 143.5  12 12" xmlns="http://www.w3.org/2000/svg">
  <path d="M 509 143.5  C 512.36 143.5  515 146.14  515 149.5  C 515 152.86  512.36 155.5  509 155.5  C 505.64 155.5  503 152.86  503 149.5  C 503 146.14  505.64 143.5  509 143.5  Z " fill-rule="nonzero" fill="#f0f0f0" stroke="none" />
  <path d="M 509 144  C 512.08 144  514.5 146.42  514.5 149.5  C 514.5 152.58  512.08 155  509 155  C 505.92 155  503.5 152.58  503.5 149.5  C 503.5 146.42  505.92 144  509 144  Z " stroke-width="1" stroke="#797979" fill="none" />
  <path d="M 509 152.5  C 507.32 152.5  506 151.18  506 149.5  C 506 147.82  507.32 146.5  509 146.5  C 510.68 146.5  512 147.82  512 149.5  C 512 151.18  510.68 152.5  509 152.5  " fill-rule="nonzero" fill="#797979" stroke="none" />
</svg>