<?xml version="1.0" encoding="utf-8"?>
<svg version="1.1" xmlns:xlink="http://www.w3.org/1999/xlink" width="12px" height="12px" viewBox="574 92  12 12" xmlns="http://www.w3.org/2000/svg">
  <path d="M 580 92  C 583.36 92  586 94.64  586 98  C 586 101.36  583.36 104  580 104  C 576.64 104  574 101.36  574 98  C 574 94.64  576.64 92  580 92  Z " fill-rule="nonzero" fill="#ffffff" stroke="none" />
  <path d="M 580 92.5  C 583.08 92.5  585.5 94.92  585.5 98  C 585.5 101.08  583.08 103.5  580 103.5  C 576.92 103.5  574.5 101.08  574.5 98  C 574.5 94.92  576.92 92.5  580 92.5  Z " stroke-width="1" stroke="#797979" fill="none" />
  <path d="M 580 101  C 578.32 101  577 99.68  577 98  C 577 96.32  578.32 95  580 95  C 581.68 95  583 96.32  583 98  C 583 99.68  581.68 101  580 101  " fill-rule="nonzero" fill="#797979" stroke="none" />
</svg>