<?xml version="1.0" encoding="utf-8"?>
<svg version="1.1" xmlns:xlink="http://www.w3.org/1999/xlink" width="12px" height="12px" viewBox="219 90.5  12 12" xmlns="http://www.w3.org/2000/svg">
  <path d="M 225 90.5  C 228.36 90.5  231 93.14  231 96.5  C 231 99.86  228.36 102.5  225 102.5  C 221.64 102.5  219 99.86  219 96.5  C 219 93.14  221.64 90.5  225 90.5  Z " fill-rule="nonzero" fill="#ffffff" stroke="none" />
  <path d="M 225 91  C 228.08 91  230.5 93.42  230.5 96.5  C 230.5 99.58  228.08 102  225 102  C 221.92 102  219.5 99.58  219.5 96.5  C 219.5 93.42  221.92 91  225 91  Z " stroke-width="1" stroke="#aaaaaa" fill="none" />
  <path d="M 225 99.5  C 223.32 99.5  222 98.18  222 96.5  C 222 94.82  223.32 93.5  225 93.5  C 226.68 93.5  228 94.82  228 96.5  C 228 98.18  226.68 99.5  225 99.5  " fill-rule="nonzero" fill="#aaaaaa" stroke="none" />
</svg>