<?xml version="1.0" encoding="utf-8"?>
<svg version="1.1" xmlns:xlink="http://www.w3.org/1999/xlink" width="12px" height="12px" viewBox="574 143.5  12 12" xmlns="http://www.w3.org/2000/svg">
  <path d="M 580 143.5  C 583.36 143.5  586 146.14  586 149.5  C 586 152.86  583.36 155.5  580 155.5  C 576.64 155.5  574 152.86  574 149.5  C 574 146.14  576.64 143.5  580 143.5  Z " fill-rule="nonzero" fill="#ffffff" stroke="none" />
  <path d="M 580 144  C 583.08 144  585.5 146.42  585.5 149.5  C 585.5 152.58  583.08 155  580 155  C 576.92 155  574.5 152.58  574.5 149.5  C 574.5 146.42  576.92 144  580 144  Z " stroke-width="1" stroke="#797979" fill="none" />
  <path d="M 580 152.5  C 578.32 152.5  577 151.18  577 149.5  C 577 147.82  578.32 146.5  580 146.5  C 581.68 146.5  583 147.82  583 149.5  C 583 151.18  581.68 152.5  580 152.5  " fill-rule="nonzero" fill="#797979" stroke="none" />
</svg>