<?xml version="1.0" encoding="utf-8"?>
<svg version="1.1" xmlns:xlink="http://www.w3.org/1999/xlink" width="12px" height="12px" viewBox="645 92  12 12" xmlns="http://www.w3.org/2000/svg">
  <path d="M 651 92  C 654.36 92  657 94.64  657 98  C 657 101.36  654.36 104  651 104  C 647.64 104  645 101.36  645 98  C 645 94.64  647.64 92  651 92  Z " fill-rule="nonzero" fill="#ffffff" stroke="none" />
  <path d="M 651 92.5  C 654.08 92.5  656.5 94.92  656.5 98  C 656.5 101.08  654.08 103.5  651 103.5  C 647.92 103.5  645.5 101.08  645.5 98  C 645.5 94.92  647.92 92.5  651 92.5  Z " stroke-width="1" stroke="#797979" fill="none" />
  <path d="M 651 101  C 649.32 101  648 99.68  648 98  C 648 96.32  649.32 95  651 95  C 652.68 95  654 96.32  654 98  C 654 99.68  652.68 101  651 101  " fill-rule="nonzero" fill="#797979" stroke="none" />
</svg>