<?xml version="1.0" encoding="utf-8"?>
<svg version="1.1" xmlns:xlink="http://www.w3.org/1999/xlink" width="12px" height="12px" viewBox="645 143.5  12 12" xmlns="http://www.w3.org/2000/svg">
  <path d="M 651 143.5  C 654.36 143.5  657 146.14  657 149.5  C 657 152.86  654.36 155.5  651 155.5  C 647.64 155.5  645 152.86  645 149.5  C 645 146.14  647.64 143.5  651 143.5  Z " fill-rule="nonzero" fill="#ffffff" stroke="none" />
  <path d="M 651 144  C 654.08 144  656.5 146.42  656.5 149.5  C 656.5 152.58  654.08 155  651 155  C 647.92 155  645.5 152.58  645.5 149.5  C 645.5 146.42  647.92 144  651 144  Z " stroke-width="1" stroke="#797979" fill="none" />
  <path d="M 651 152.5  C 649.32 152.5  648 151.18  648 149.5  C 648 147.82  649.32 146.5  651 146.5  C 652.68 146.5  654 147.82  654 149.5  C 654 151.18  652.68 152.5  651 152.5  " fill-rule="nonzero" fill="#797979" stroke="none" />
</svg>