<?xml version="1.0" encoding="utf-8"?>
<svg version="1.1" xmlns:xlink="http://www.w3.org/1999/xlink" width="12px" height="12px" viewBox="432 90.5  12 12" xmlns="http://www.w3.org/2000/svg">
  <path d="M 438 90.5  C 441.36 90.5  444 93.14  444 96.5  C 444 99.86  441.36 102.5  438 102.5  C 434.64 102.5  432 99.86  432 96.5  C 432 93.14  434.64 90.5  438 90.5  Z " fill-rule="nonzero" fill="#ffffff" stroke="none" />
  <path d="M 438 91  C 441.08 91  443.5 93.42  443.5 96.5  C 443.5 99.58  441.08 102  438 102  C 434.92 102  432.5 99.58  432.5 96.5  C 432.5 93.42  434.92 91  438 91  Z " stroke-width="1" stroke="#797979" fill="none" />
  <path d="M 438 99.5  C 436.32 99.5  435 98.18  435 96.5  C 435 94.82  436.32 93.5  438 93.5  C 439.68 93.5  441 94.82  441 96.5  C 441 98.18  439.68 99.5  438 99.5  " fill-rule="nonzero" fill="#797979" stroke="none" />
</svg>