<?xml version="1.0" encoding="utf-8"?>
<svg version="1.1" xmlns:xlink="http://www.w3.org/1999/xlink" width="12px" height="12px" viewBox="219 196.5  12 12" xmlns="http://www.w3.org/2000/svg">
  <path d="M 225 196.5  C 228.36 196.5  231 199.14  231 202.5  C 231 205.86  228.36 208.5  225 208.5  C 221.64 208.5  219 205.86  219 202.5  C 219 199.14  221.64 196.5  225 196.5  Z " fill-rule="nonzero" fill="#ffffff" stroke="none" />
  <path d="M 225 197  C 228.08 197  230.5 199.42  230.5 202.5  C 230.5 205.58  228.08 208  225 208  C 221.92 208  219.5 205.58  219.5 202.5  C 219.5 199.42  221.92 197  225 197  Z " stroke-width="1" stroke="#797979" fill="none" />
  <path d="M 225 205.5  C 223.32 205.5  222 204.18  222 202.5  C 222 200.82  223.32 199.5  225 199.5  C 226.68 199.5  228 200.82  228 202.5  C 228 204.18  226.68 205.5  225 205.5  " fill-rule="nonzero" fill="#797979" stroke="none" />
</svg>