<?xml version="1.0" encoding="utf-8"?>
<svg version="1.1" xmlns:xlink="http://www.w3.org/1999/xlink" width="12px" height="12px" viewBox="645 90.5  12 12" xmlns="http://www.w3.org/2000/svg">
  <path d="M 651 90.5  C 654.36 90.5  657 93.14  657 96.5  C 657 99.86  654.36 102.5  651 102.5  C 647.64 102.5  645 99.86  645 96.5  C 645 93.14  647.64 90.5  651 90.5  Z " fill-rule="nonzero" fill="#ffffff" stroke="none" />
  <path d="M 651 91  C 654.08 91  656.5 93.42  656.5 96.5  C 656.5 99.58  654.08 102  651 102  C 647.92 102  645.5 99.58  645.5 96.5  C 645.5 93.42  647.92 91  651 91  Z " stroke-width="1" stroke="#797979" fill="none" />
  <path d="M 651 99.5  C 649.32 99.5  648 98.18  648 96.5  C 648 94.82  649.32 93.5  651 93.5  C 652.68 93.5  654 94.82  654 96.5  C 654 98.18  652.68 99.5  651 99.5  " fill-rule="nonzero" fill="#797979" stroke="none" />
</svg>