<?xml version="1.0" encoding="utf-8"?>
<svg version="1.1" xmlns:xlink="http://www.w3.org/1999/xlink" width="12px" height="12px" viewBox="574 145  12 12" xmlns="http://www.w3.org/2000/svg">
  <path d="M 580 145  C 583.36 145  586 147.64  586 151  C 586 154.36  583.36 157  580 157  C 576.64 157  574 154.36  574 151  C 574 147.64  576.64 145  580 145  Z " fill-rule="nonzero" fill="#ffffff" stroke="none" />
  <path d="M 580 145.5  C 583.08 145.5  585.5 147.92  585.5 151  C 585.5 154.08  583.08 156.5  580 156.5  C 576.92 156.5  574.5 154.08  574.5 151  C 574.5 147.92  576.92 145.5  580 145.5  Z " stroke-width="1" stroke="#797979" fill="none" />
  <path d="M 580 154  C 578.32 154  577 152.68  577 151  C 577 149.32  578.32 148  580 148  C 581.68 148  583 149.32  583 151  C 583 152.68  581.68 154  580 154  " fill-rule="nonzero" fill="#797979" stroke="none" />
</svg>