<?xml version="1.0" encoding="utf-8"?>
<svg version="1.1" xmlns:xlink="http://www.w3.org/1999/xlink" width="12px" height="12px" viewBox="361 145  12 12" xmlns="http://www.w3.org/2000/svg">
  <path d="M 367 145  C 370.36 145  373 147.64  373 151  C 373 154.36  370.36 157  367 157  C 363.64 157  361 154.36  361 151  C 361 147.64  363.64 145  367 145  Z " fill-rule="nonzero" fill="#ffffff" stroke="none" />
  <path d="M 367 145.5  C 370.08 145.5  372.5 147.92  372.5 151  C 372.5 154.08  370.08 156.5  367 156.5  C 363.92 156.5  361.5 154.08  361.5 151  C 361.5 147.92  363.92 145.5  367 145.5  Z " stroke-width="1" stroke="#797979" fill="none" />
  <path d="M 367 154  C 365.32 154  364 152.68  364 151  C 364 149.32  365.32 148  367 148  C 368.68 148  370 149.32  370 151  C 370 152.68  368.68 154  367 154  " fill-rule="nonzero" fill="#797979" stroke="none" />
</svg>