<?xml version="1.0" encoding="utf-8"?>
<svg version="1.1" xmlns:xlink="http://www.w3.org/1999/xlink" width="12px" height="12px" viewBox="290 143.5  12 12" xmlns="http://www.w3.org/2000/svg">
  <path d="M 296 143.5  C 299.36 143.5  302 146.14  302 149.5  C 302 152.86  299.36 155.5  296 155.5  C 292.64 155.5  290 152.86  290 149.5  C 290 146.14  292.64 143.5  296 143.5  Z " fill-rule="nonzero" fill="#f0f0f0" stroke="none" />
  <path d="M 296 144  C 299.08 144  301.5 146.42  301.5 149.5  C 301.5 152.58  299.08 155  296 155  C 292.92 155  290.5 152.58  290.5 149.5  C 290.5 146.42  292.92 144  296 144  Z " stroke-width="1" stroke="#797979" fill="none" />
  <path d="M 296 152.5  C 294.32 152.5  293 151.18  293 149.5  C 293 147.82  294.32 146.5  296 146.5  C 297.68 146.5  299 147.82  299 149.5  C 299 151.18  297.68 152.5  296 152.5  " fill-rule="nonzero" fill="#797979" stroke="none" />
</svg>