<?xml version="1.0" encoding="utf-8"?>
<svg version="1.1" xmlns:xlink="http://www.w3.org/1999/xlink" width="12px" height="12px" viewBox="645 196.5  12 12" xmlns="http://www.w3.org/2000/svg">
  <path d="M 651 196.5  C 654.36 196.5  657 199.14  657 202.5  C 657 205.86  654.36 208.5  651 208.5  C 647.64 208.5  645 205.86  645 202.5  C 645 199.14  647.64 196.5  651 196.5  Z " fill-rule="nonzero" fill="#ffffff" stroke="none" />
  <path d="M 651 197  C 654.08 197  656.5 199.42  656.5 202.5  C 656.5 205.58  654.08 208  651 208  C 647.92 208  645.5 205.58  645.5 202.5  C 645.5 199.42  647.92 197  651 197  Z " stroke-width="1" stroke="#797979" fill="none" />
  <path d="M 651 205.5  C 649.32 205.5  648 204.18  648 202.5  C 648 200.82  649.32 199.5  651 199.5  C 652.68 199.5  654 200.82  654 202.5  C 654 204.18  652.68 205.5  651 205.5  " fill-rule="nonzero" fill="#797979" stroke="none" />
</svg>