<?xml version="1.0" encoding="utf-8"?>
<svg version="1.1" xmlns:xlink="http://www.w3.org/1999/xlink" width="12px" height="12px" viewBox="432 143.5  12 12" xmlns="http://www.w3.org/2000/svg">
  <path d="M 438 143.5  C 441.36 143.5  444 146.14  444 149.5  C 444 152.86  441.36 155.5  438 155.5  C 434.64 155.5  432 152.86  432 149.5  C 432 146.14  434.64 143.5  438 143.5  Z " fill-rule="nonzero" fill="#f0f0f0" stroke="none" />
  <path d="M 438 144  C 441.08 144  443.5 146.42  443.5 149.5  C 443.5 152.58  441.08 155  438 155  C 434.92 155  432.5 152.58  432.5 149.5  C 432.5 146.42  434.92 144  438 144  Z " stroke-width="1" stroke="#797979" fill="none" />
  <path d="M 438 152.5  C 436.32 152.5  435 151.18  435 149.5  C 435 147.82  436.32 146.5  438 146.5  C 439.68 146.5  441 147.82  441 149.5  C 441 151.18  439.68 152.5  438 152.5  " fill-rule="nonzero" fill="#797979" stroke="none" />
</svg>