<?xml version="1.0" encoding="utf-8"?>
<svg version="1.1" xmlns:xlink="http://www.w3.org/1999/xlink" width="12px" height="12px" viewBox="503 145  12 12" xmlns="http://www.w3.org/2000/svg">
  <path d="M 509 145  C 512.36 145  515 147.64  515 151  C 515 154.36  512.36 157  509 157  C 505.64 157  503 154.36  503 151  C 503 147.64  505.64 145  509 145  Z " fill-rule="nonzero" fill="#ffffff" stroke="none" />
  <path d="M 509 145.5  C 512.08 145.5  514.5 147.92  514.5 151  C 514.5 154.08  512.08 156.5  509 156.5  C 505.92 156.5  503.5 154.08  503.5 151  C 503.5 147.92  505.92 145.5  509 145.5  Z " stroke-width="1" stroke="#797979" fill="none" />
  <path d="M 509 154  C 507.32 154  506 152.68  506 151  C 506 149.32  507.32 148  509 148  C 510.68 148  512 149.32  512 151  C 512 152.68  510.68 154  509 154  " fill-rule="nonzero" fill="#797979" stroke="none" />
</svg>