<?xml version="1.0" encoding="utf-8"?>
<svg version="1.1" xmlns:xlink="http://www.w3.org/1999/xlink" width="12px" height="12px" viewBox="361 198  12 12" xmlns="http://www.w3.org/2000/svg">
  <path d="M 367 198  C 370.36 198  373 200.64  373 204  C 373 207.36  370.36 210  367 210  C 363.64 210  361 207.36  361 204  C 361 200.64  363.64 198  367 198  Z " fill-rule="nonzero" fill="#ffffff" stroke="none" />
  <path d="M 367 198.5  C 370.08 198.5  372.5 200.92  372.5 204  C 372.5 207.08  370.08 209.5  367 209.5  C 363.92 209.5  361.5 207.08  361.5 204  C 361.5 200.92  363.92 198.5  367 198.5  Z " stroke-width="1" stroke="#797979" fill="none" />
  <path d="M 367 207  C 365.32 207  364 205.68  364 204  C 364 202.32  365.32 201  367 201  C 368.68 201  370 202.32  370 204  C 370 205.68  368.68 207  367 207  " fill-rule="nonzero" fill="#797979" stroke="none" />
</svg>