<?xml version="1.0" encoding="utf-8"?>
<svg version="1.1" xmlns:xlink="http://www.w3.org/1999/xlink" width="12px" height="12px" viewBox="645 145  12 12" xmlns="http://www.w3.org/2000/svg">
  <path d="M 651 145  C 654.36 145  657 147.64  657 151  C 657 154.36  654.36 157  651 157  C 647.64 157  645 154.36  645 151  C 645 147.64  647.64 145  651 145  Z " fill-rule="nonzero" fill="#ffffff" stroke="none" />
  <path d="M 651 145.5  C 654.08 145.5  656.5 147.92  656.5 151  C 656.5 154.08  654.08 156.5  651 156.5  C 647.92 156.5  645.5 154.08  645.5 151  C 645.5 147.92  647.92 145.5  651 145.5  Z " stroke-width="1" stroke="#797979" fill="none" />
  <path d="M 651 154  C 649.32 154  648 152.68  648 151  C 648 149.32  649.32 148  651 148  C 652.68 148  654 149.32  654 151  C 654 152.68  652.68 154  651 154  " fill-rule="nonzero" fill="#797979" stroke="none" />
</svg>