<?xml version="1.0" encoding="utf-8"?>
<svg version="1.1" xmlns:xlink="http://www.w3.org/1999/xlink" width="12px" height="12px" viewBox="148 198  12 12" xmlns="http://www.w3.org/2000/svg">
  <path d="M 154 198  C 157.36 198  160 200.64  160 204  C 160 207.36  157.36 210  154 210  C 150.64 210  148 207.36  148 204  C 148 200.64  150.64 198  154 198  Z " fill-rule="nonzero" fill="#ffffff" stroke="none" />
  <path d="M 154 198.5  C 157.08 198.5  159.5 200.92  159.5 204  C 159.5 207.08  157.08 209.5  154 209.5  C 150.92 209.5  148.5 207.08  148.5 204  C 148.5 200.92  150.92 198.5  154 198.5  Z " stroke-width="1" stroke="#797979" fill="none" />
  <path d="M 154 207  C 152.32 207  151 205.68  151 204  C 151 202.32  152.32 201  154 201  C 155.68 201  157 202.32  157 204  C 157 205.68  155.68 207  154 207  " fill-rule="nonzero" fill="#797979" stroke="none" />
</svg>