<?xml version="1.0" encoding="utf-8"?>
<svg version="1.1" xmlns:xlink="http://www.w3.org/1999/xlink" width="12px" height="12px" viewBox="574 196.5  12 12" xmlns="http://www.w3.org/2000/svg">
  <path d="M 580 196.5  C 583.36 196.5  586 199.14  586 202.5  C 586 205.86  583.36 208.5  580 208.5  C 576.64 208.5  574 205.86  574 202.5  C 574 199.14  576.64 196.5  580 196.5  Z " fill-rule="nonzero" fill="#ffffff" stroke="none" />
  <path d="M 580 197  C 583.08 197  585.5 199.42  585.5 202.5  C 585.5 205.58  583.08 208  580 208  C 576.92 208  574.5 205.58  574.5 202.5  C 574.5 199.42  576.92 197  580 197  Z " stroke-width="1" stroke="#797979" fill="none" />
  <path d="M 580 205.5  C 578.32 205.5  577 204.18  577 202.5  C 577 200.82  578.32 199.5  580 199.5  C 581.68 199.5  583 200.82  583 202.5  C 583 204.18  581.68 205.5  580 205.5  " fill-rule="nonzero" fill="#797979" stroke="none" />
</svg>