<?xml version="1.0" encoding="utf-8"?>
<svg version="1.1" xmlns:xlink="http://www.w3.org/1999/xlink" width="12px" height="12px" viewBox="290 196.5  12 12" xmlns="http://www.w3.org/2000/svg">
  <path d="M 296 196.5  C 299.36 196.5  302 199.14  302 202.5  C 302 205.86  299.36 208.5  296 208.5  C 292.64 208.5  290 205.86  290 202.5  C 290 199.14  292.64 196.5  296 196.5  Z " fill-rule="nonzero" fill="#ffffff" stroke="none" />
  <path d="M 296 197  C 299.08 197  301.5 199.42  301.5 202.5  C 301.5 205.58  299.08 208  296 208  C 292.92 208  290.5 205.58  290.5 202.5  C 290.5 199.42  292.92 197  296 197  Z " stroke-width="1" stroke="#797979" fill="none" />
  <path d="M 296 205.5  C 294.32 205.5  293 204.18  293 202.5  C 293 200.82  294.32 199.5  296 199.5  C 297.68 199.5  299 200.82  299 202.5  C 299 204.18  297.68 205.5  296 205.5  " fill-rule="nonzero" fill="#797979" stroke="none" />
</svg>