<?xml version="1.0" encoding="utf-8"?>
<svg version="1.1" xmlns:xlink="http://www.w3.org/1999/xlink" width="12px" height="12px" viewBox="361 196.5  12 12" xmlns="http://www.w3.org/2000/svg">
  <path d="M 367 196.5  C 370.36 196.5  373 199.14  373 202.5  C 373 205.86  370.36 208.5  367 208.5  C 363.64 208.5  361 205.86  361 202.5  C 361 199.14  363.64 196.5  367 196.5  Z " fill-rule="nonzero" fill="#ffffff" stroke="none" />
  <path d="M 367 197  C 370.08 197  372.5 199.42  372.5 202.5  C 372.5 205.58  370.08 208  367 208  C 363.92 208  361.5 205.58  361.5 202.5  C 361.5 199.42  363.92 197  367 197  Z " stroke-width="1" stroke="#797979" fill="none" />
  <path d="M 367 205.5  C 365.32 205.5  364 204.18  364 202.5  C 364 200.82  365.32 199.5  367 199.5  C 368.68 199.5  370 200.82  370 202.5  C 370 204.18  368.68 205.5  367 205.5  " fill-rule="nonzero" fill="#797979" stroke="none" />
</svg>