<?xml version="1.0" encoding="utf-8"?>
<svg version="1.1" xmlns:xlink="http://www.w3.org/1999/xlink" width="12px" height="12px" viewBox="432 196.5  12 12" xmlns="http://www.w3.org/2000/svg">
  <path d="M 438 196.5  C 441.36 196.5  444 199.14  444 202.5  C 444 205.86  441.36 208.5  438 208.5  C 434.64 208.5  432 205.86  432 202.5  C 432 199.14  434.64 196.5  438 196.5  Z " fill-rule="nonzero" fill="#f0f0f0" stroke="none" />
  <path d="M 438 197  C 441.08 197  443.5 199.42  443.5 202.5  C 443.5 205.58  441.08 208  438 208  C 434.92 208  432.5 205.58  432.5 202.5  C 432.5 199.42  434.92 197  438 197  Z " stroke-width="1" stroke="#797979" fill="none" />
  <path d="M 438 205.5  C 436.32 205.5  435 204.18  435 202.5  C 435 200.82  436.32 199.5  438 199.5  C 439.68 199.5  441 200.82  441 202.5  C 441 204.18  439.68 205.5  438 205.5  " fill-rule="nonzero" fill="#797979" stroke="none" />
</svg>