<?xml version="1.0" encoding="utf-8"?>
<svg version="1.1" xmlns:xlink="http://www.w3.org/1999/xlink" width="12px" height="12px" viewBox="503 196.5  12 12" xmlns="http://www.w3.org/2000/svg">
  <path d="M 509 196.5  C 512.36 196.5  515 199.14  515 202.5  C 515 205.86  512.36 208.5  509 208.5  C 505.64 208.5  503 205.86  503 202.5  C 503 199.14  505.64 196.5  509 196.5  Z " fill-rule="nonzero" fill="#ffffff" stroke="none" />
  <path d="M 509 197  C 512.08 197  514.5 199.42  514.5 202.5  C 514.5 205.58  512.08 208  509 208  C 505.92 208  503.5 205.58  503.5 202.5  C 503.5 199.42  505.92 197  509 197  Z " stroke-width="1" stroke="#797979" fill="none" />
  <path d="M 509 205.5  C 507.32 205.5  506 204.18  506 202.5  C 506 200.82  507.32 199.5  509 199.5  C 510.68 199.5  512 200.82  512 202.5  C 512 204.18  510.68 205.5  509 205.5  " fill-rule="nonzero" fill="#797979" stroke="none" />
</svg>