<?xml version="1.0" encoding="utf-8"?>
<svg version="1.1" xmlns:xlink="http://www.w3.org/1999/xlink" width="12px" height="12px" viewBox="574 198  12 12" xmlns="http://www.w3.org/2000/svg">
  <path d="M 580 198  C 583.36 198  586 200.64  586 204  C 586 207.36  583.36 210  580 210  C 576.64 210  574 207.36  574 204  C 574 200.64  576.64 198  580 198  Z " fill-rule="nonzero" fill="#ffffff" stroke="none" />
  <path d="M 580 198.5  C 583.08 198.5  585.5 200.92  585.5 204  C 585.5 207.08  583.08 209.5  580 209.5  C 576.92 209.5  574.5 207.08  574.5 204  C 574.5 200.92  576.92 198.5  580 198.5  Z " stroke-width="1" stroke="#797979" fill="none" />
  <path d="M 580 207  C 578.32 207  577 205.68  577 204  C 577 202.32  578.32 201  580 201  C 581.68 201  583 202.32  583 204  C 583 205.68  581.68 207  580 207  " fill-rule="nonzero" fill="#797979" stroke="none" />
</svg>