<?xml version="1.0" encoding="utf-8"?>
<svg version="1.1" xmlns:xlink="http://www.w3.org/1999/xlink" width="12px" height="12px" viewBox="645 198  12 12" xmlns="http://www.w3.org/2000/svg">
  <path d="M 651 198  C 654.36 198  657 200.64  657 204  C 657 207.36  654.36 210  651 210  C 647.64 210  645 207.36  645 204  C 645 200.64  647.64 198  651 198  Z " fill-rule="nonzero" fill="#ffffff" stroke="none" />
  <path d="M 651 198.5  C 654.08 198.5  656.5 200.92  656.5 204  C 656.5 207.08  654.08 209.5  651 209.5  C 647.92 209.5  645.5 207.08  645.5 204  C 645.5 200.92  647.92 198.5  651 198.5  Z " stroke-width="1" stroke="#797979" fill="none" />
  <path d="M 651 207  C 649.32 207  648 205.68  648 204  C 648 202.32  649.32 201  651 201  C 652.68 201  654 202.32  654 204  C 654 205.68  652.68 207  651 207  " fill-rule="nonzero" fill="#797979" stroke="none" />
</svg>