<?xml version="1.0" encoding="utf-8"?>
<svg version="1.1" xmlns:xlink="http://www.w3.org/1999/xlink" width="445px" height="32px" xmlns="http://www.w3.org/2000/svg">
  <g transform="matrix(1 0 0 1 -320 -556 )">
    <path d="M 321 560  A 3 3 0 0 1 324 557 L 761 557  A 3 3 0 0 1 764 560 L 764 584  A 3 3 0 0 1 761 587 L 324 587  A 3 3 0 0 1 321 584 L 321 560  Z " fill-rule="nonzero" fill="#aaaaaa" stroke="none" fill-opacity="0" />
    <path d="M 320.5 560  A 3.5 3.5 0 0 1 324 556.5 L 761 556.5  A 3.5 3.5 0 0 1 764.5 560 L 764.5 584  A 3.5 3.5 0 0 1 761 587.5 L 324 587.5  A 3.5 3.5 0 0 1 320.5 584 L 320.5 560  Z " stroke-width="1" stroke-dasharray="9,4" stroke="#d9d9d9" fill="none" stroke-dashoffset="0.5" />
  </g>
</svg>