<?xml version="1.0" encoding="utf-8"?>
<svg version="1.1" xmlns:xlink="http://www.w3.org/1999/xlink" width="12px" height="12px" viewBox="254 320.5  12 12" xmlns="http://www.w3.org/2000/svg">
  <path d="M 260 320.5  C 263.36 320.5  266 323.14  266 326.5  C 266 329.86  263.36 332.5  260 332.5  C 256.64 332.5  254 329.86  254 326.5  C 254 323.14  256.64 320.5  260 320.5  Z " fill-rule="nonzero" fill="#f0f0f0" stroke="none" />
  <path d="M 260 321  C 263.08 321  265.5 323.42  265.5 326.5  C 265.5 329.58  263.08 332  260 332  C 256.92 332  254.5 329.58  254.5 326.5  C 254.5 323.42  256.92 321  260 321  Z " stroke-width="1" stroke="#797979" fill="none" />
  <path d="M 260 329.5  C 258.32 329.5  257 328.18  257 326.5  C 257 324.82  258.32 323.5  260 323.5  C 261.68 323.5  263 324.82  263 326.5  C 263 328.18  261.68 329.5  260 329.5  " fill-rule="nonzero" fill="#797979" stroke="none" />
</svg>