<?xml version="1.0" encoding="utf-8"?>
<svg version="1.1" xmlns:xlink="http://www.w3.org/1999/xlink" width="12px" height="12px" viewBox="254 322  12 12" xmlns="http://www.w3.org/2000/svg">
  <path d="M 260 322  C 263.36 322  266 324.64  266 328  C 266 331.36  263.36 334  260 334  C 256.64 334  254 331.36  254 328  C 254 324.64  256.64 322  260 322  Z " fill-rule="nonzero" fill="#ffffff" stroke="none" />
  <path d="M 260 322.5  C 263.08 322.5  265.5 324.92  265.5 328  C 265.5 331.08  263.08 333.5  260 333.5  C 256.92 333.5  254.5 331.08  254.5 328  C 254.5 324.92  256.92 322.5  260 322.5  Z " stroke-width="1" stroke="#797979" fill="none" />
  <path d="M 260 331  C 258.32 331  257 329.68  257 328  C 257 326.32  258.32 325  260 325  C 261.68 325  263 326.32  263 328  C 263 329.68  261.68 331  260 331  " fill-rule="nonzero" fill="#797979" stroke="none" />
</svg>