<?xml version="1.0" encoding="utf-8"?>
<svg version="1.1" xmlns:xlink="http://www.w3.org/1999/xlink" width="16px" height="18px" xmlns="http://www.w3.org/2000/svg">
  <g transform="matrix(1 0 0 1 -1267 -217 )">
    <path d="M 12.0416666666667 0.683035714285715  L 15.2916666666667 3.81696428571429  C 15.4861111111111 4.00446428571428  15.6527777777778 4.25892857142857  15.7916666666667 4.58035714285714  C 15.9305555555556 4.90178571428572  16 5.19642857142857  16 5.46428571428572  L 16 17.0357142857143  C 16 17.3035714285714  15.9027777777778 17.53125  15.7083333333333 17.71875  C 15.5138888888889 17.90625  15.2777777777778 18  15 18  L 1 18  C 0.722222222222222 18  0.486111111111111 17.90625  0.291666666666667 17.71875  C 0.0972222222222222 17.53125  0 17.3035714285714  0 17.0357142857143  L 0 0.964285714285715  C 0 0.696428571428571  0.0972222222222222 0.468749999999999  0.291666666666667 0.28125  C 0.486111111111111 0.0937500000000007  0.722222222222222 0  1 0  L 10.3333333333333 0  C 10.6111111111111 0  10.9166666666667 0.0669642857142865  11.25 0.200892857142857  C 11.5833333333333 0.334821428571428  11.8472222222222 0.495535714285714  12.0416666666667 0.683035714285715  Z M 11.09375 1.58705357142857  C 11.0104166666667 1.50669642857143  10.8680555555556 1.43303571428571  10.6666666666667 1.36607142857143  L 10.6666666666667 5.14285714285714  L 14.5833333333333 5.14285714285714  C 14.5138888888889 4.94866071428571  14.4375 4.81138392857143  14.3541666666667 4.73102678571428  L 11.09375 1.58705357142857  Z M 1.33333333333333 16.7142857142857  L 14.6666666666667 16.7142857142857  L 14.6666666666667 6.42857142857143  L 10.3333333333333 6.42857142857143  C 10.0555555555556 6.42857142857143  9.81944444444444 6.33482142857143  9.625 6.14732142857143  C 9.43055555555556 5.95982142857143  9.33333333333333 5.73214285714285  9.33333333333333 5.46428571428572  L 9.33333333333333 1.28571428571429  L 1.33333333333333 1.28571428571429  L 1.33333333333333 16.7142857142857  Z M 10 9  L 13.3333333333333 12.2142857142857  L 13.3333333333333 15.4285714285714  L 2.66666666666667 15.4285714285714  L 2.66666666666667 13.5  L 4.66666666666667 11.5714285714286  L 6 12.8571428571429  L 10 9  Z M 6.08333333333333 9.72321428571428  C 5.69444444444445 10.0982142857143  5.22222222222222 10.2857142857143  4.66666666666667 10.2857142857143  C 4.11111111111111 10.2857142857143  3.63888888888889 10.0982142857143  3.25 9.72321428571428  C 2.86111111111111 9.34821428571429  2.66666666666667 8.89285714285714  2.66666666666667 8.35714285714286  C 2.66666666666667 7.82142857142857  2.86111111111111 7.36607142857143  3.25 6.99107142857143  C 3.63888888888889 6.61607142857143  4.11111111111111 6.42857142857143  4.66666666666667 6.42857142857143  C 5.22222222222222 6.42857142857143  5.69444444444445 6.61607142857143  6.08333333333333 6.99107142857143  C 6.47222222222222 7.36607142857143  6.66666666666667 7.82142857142857  6.66666666666667 8.35714285714286  C 6.66666666666667 8.89285714285714  6.47222222222222 9.34821428571429  6.08333333333333 9.72321428571428  Z " fill-rule="nonzero" fill="#0000ff" stroke="none" transform="matrix(1 0 0 1 1267 217 )" />
  </g>
</svg>