<?xml version="1.0" encoding="utf-8"?>
<svg version="1.1" xmlns:xlink="http://www.w3.org/1999/xlink" width="895px" height="32px" xmlns="http://www.w3.org/2000/svg">
  <g transform="matrix(1 0 0 1 -25 -356 )">
    <path d="M 26 360  A 3 3 0 0 1 29 357 L 916 357  A 3 3 0 0 1 919 360 L 919 384  A 3 3 0 0 1 916 387 L 29 387  A 3 3 0 0 1 26 384 L 26 360  Z " fill-rule="nonzero" fill="#ffffff" stroke="none" />
    <path d="M 25.5 360  A 3.5 3.5 0 0 1 29 356.5 L 916 356.5  A 3.5 3.5 0 0 1 919.5 360 L 919.5 384  A 3.5 3.5 0 0 1 916 387.5 L 29 387.5  A 3.5 3.5 0 0 1 25.5 384 L 25.5 360  Z " stroke-width="1" stroke-dasharray="9,4" stroke="#d9d9d9" fill="none" stroke-dashoffset="0.5" />
  </g>
</svg>