<?xml version="1.0" encoding="utf-8"?>
<svg version="1.1" xmlns:xlink="http://www.w3.org/1999/xlink" width="30px" height="19px" xmlns="http://www.w3.org/2000/svg">
  <g transform="matrix(1 0 0 1 -426 -14 )">
    <path d="M 16.28173828125 12.446484375  C 16.67724609375 11.511328125  16.875 10.5291666666667  16.875 9.5  C 16.875 8.47083333333333  16.67724609375 7.488671875  16.28173828125 6.553515625  C 15.88623046875 5.618359375  15.3515625 4.809375  14.677734375 4.1265625  C 14.00390625 3.44375  13.20556640625 2.901953125  12.28271484375 2.501171875  C 11.35986328125 2.100390625  10.390625 1.9  9.375 1.9  C 8.359375 1.9  7.39013671875 2.100390625  6.46728515625 2.501171875  C 5.54443359375 2.901953125  4.74609375 3.44375  4.072265625 4.1265625  C 3.3984375 4.809375  2.86376953125 5.618359375  2.46826171875 6.553515625  C 2.07275390625 7.488671875  1.875 8.47083333333333  1.875 9.5  C 1.875 10.5291666666667  2.07275390625 11.511328125  2.46826171875 12.446484375  C 2.86376953125 13.381640625  3.3984375 14.190625  4.072265625 14.8734375  C 4.74609375 15.55625  5.54443359375 16.098046875  6.46728515625 16.498828125  C 7.39013671875 16.899609375  8.359375 17.1  9.375 17.1  C 10.390625 17.1  11.35986328125 16.899609375  12.28271484375 16.498828125  C 13.20556640625 16.098046875  14.00390625 15.55625  14.677734375 14.8734375  C 15.3515625 14.190625  15.88623046875 13.381640625  16.28173828125 12.446484375  Z M 27.53173828125 12.446484375  C 27.92724609375 11.511328125  28.125 10.5291666666667  28.125 9.5  C 28.125 8.47083333333333  27.92724609375 7.488671875  27.53173828125 6.553515625  C 27.13623046875 5.618359375  26.6015625 4.809375  25.927734375 4.1265625  C 25.25390625 3.44375  24.45556640625 2.901953125  23.53271484375 2.501171875  C 22.60986328125 2.100390625  21.640625 1.9  20.625 1.9  L 14.970703125 1.9  C 16.1328125 2.790625  17.05322265625 3.89895833333333  17.73193359375 5.225  C 18.41064453125 6.55104166666667  18.75 7.97604166666666  18.75 9.5  C 18.75 11.0239583333333  18.41064453125 12.4489583333333  17.73193359375 13.775  C 17.05322265625 15.1010416666667  16.1328125 16.209375  14.970703125 17.1  L 20.625 17.1  C 21.640625 17.1  22.60986328125 16.899609375  23.53271484375 16.498828125  C 24.45556640625 16.098046875  25.25390625 15.55625  25.927734375 14.8734375  C 26.6015625 14.190625  27.13623046875 13.381640625  27.53173828125 12.446484375  Z M 29.2529296875 5.811328125  C 29.7509765625 6.983984375  30 8.21354166666667  30 9.5  C 30 10.7864583333333  29.7509765625 12.016015625  29.2529296875 13.188671875  C 28.7548828125 14.361328125  28.08837890625 15.370703125  27.25341796875 16.216796875  C 26.41845703125 17.062890625  25.42236328125 17.73828125  24.26513671875 18.24296875  C 23.10791015625 18.74765625  21.89453125 19  20.625 19  L 9.375 19  C 8.10546875 19  6.89208984375 18.74765625  5.73486328125 18.24296875  C 4.57763671875 17.73828125  3.58154296875 17.062890625  2.74658203125 16.216796875  C 1.91162109375 15.370703125  1.2451171875 14.361328125  0.7470703125 13.188671875  C 0.2490234375 12.016015625  0 10.7864583333333  0 9.5  C 0 8.21354166666667  0.2490234375 6.983984375  0.7470703125 5.811328125  C 1.2451171875 4.638671875  1.91162109375 3.629296875  2.74658203125 2.783203125  C 3.58154296875 1.937109375  4.57763671875 1.26171875  5.73486328125 0.757031249999999  C 6.89208984375 0.25234375  8.10546875 0  9.375 0  L 20.625 0  C 21.89453125 0  23.10791015625 0.25234375  24.26513671875 0.757031249999999  C 25.42236328125 1.26171875  26.41845703125 1.937109375  27.25341796875 2.783203125  C 28.08837890625 3.629296875  28.7548828125 4.638671875  29.2529296875 5.811328125  Z " fill-rule="nonzero" fill="#0000ff" stroke="none" transform="matrix(1 0 0 1 426 14 )" />
  </g>
</svg>