<?xml version="1.0" encoding="utf-8"?>
<svg version="1.1" xmlns:xlink="http://www.w3.org/1999/xlink" width="949px" height="114px" xmlns="http://www.w3.org/2000/svg">
  <g transform="matrix(1 0 0 1 0 -56 )">
    <path d="M 0.5 0  L 0.5 112.477657935285  C 0 112.770169491525  0.588598306679212 113  1.33772342427093 113.5  L 473.293956231136 113.5  L 946.662276575729 113  C 947.411401693321 113  948 112.770169491525  948.5 112.477657935285  L 948.5 0  L 0.5 0  Z " fill-rule="nonzero" fill="#ffffff" stroke="none" transform="matrix(1 0 0 1 0 56 )" />
    <path d="M 0.5 0  L 0.5 112.477657935285  C 0 112.770169491525  0.588598306679212 113  1.33772342427093 113.5  L 473.293956231136 113.5  L 946.662276575729 113  C 947.411401693321 113  948 112.770169491525  948.5 112.477657935285  L 948.5 0  " stroke-width="1" stroke="#e9e9e9" fill="none" transform="matrix(1 0 0 1 0 56 )" />
  </g>
</svg>