<?xml version="1.0" encoding="utf-8"?>
<svg version="1.1" xmlns:xlink="http://www.w3.org/1999/xlink" width="104px" height="104px" xmlns="http://www.w3.org/2000/svg">
  <g transform="matrix(1 0 0 1 -590 -225 )">
    <path d="M 591 234  A 8 8 0 0 1 599 226 L 685 226  A 8 8 0 0 1 693 234 L 693 320  A 8 8 0 0 1 685 328 L 599 328  A 8 8 0 0 1 591 320 L 591 234  Z " fill-rule="nonzero" fill="#000000" stroke="none" fill-opacity="0.0196078431372549" />
    <path d="M 590.5 234  A 8.5 8.5 0 0 1 599 225.5 L 685 225.5  A 8.5 8.5 0 0 1 693.5 234 L 693.5 320  A 8.5 8.5 0 0 1 685 328.5 L 599 328.5  A 8.5 8.5 0 0 1 590.5 320 L 590.5 234  Z " stroke-width="1" stroke-dasharray="9,4" stroke="#000000" fill="none" stroke-opacity="0.149019607843137" stroke-dashoffset="0.5" />
  </g>
</svg>