<?xml version="1.0" encoding="utf-8"?>
<svg version="1.1" xmlns:xlink="http://www.w3.org/1999/xlink" width="290px" height="33px" xmlns="http://www.w3.org/2000/svg">
  <g transform="matrix(1 0 0 1 -24 -183 )">
    <path d="M 25 187  A 3 3 0 0 1 28 184 L 310 184  A 3 3 0 0 1 313 187 L 313 212  A 3 3 0 0 1 310 215 L 28 215  A 3 3 0 0 1 25 212 L 25 187  Z " fill-rule="nonzero" fill="#ffffff" stroke="none" />
    <path d="M 24.5 187  A 3.5 3.5 0 0 1 28 183.5 L 310 183.5  A 3.5 3.5 0 0 1 313.5 187 L 313.5 212  A 3.5 3.5 0 0 1 310 215.5 L 28 215.5  A 3.5 3.5 0 0 1 24.5 212 L 24.5 187  Z " stroke-width="1" stroke-dasharray="9,4" stroke="#7f7f7f" fill="none" stroke-dashoffset="0.5" />
  </g>
</svg>