<?xml version="1.0" encoding="utf-8"?>
<svg version="1.1" xmlns:xlink="http://www.w3.org/1999/xlink" width="16px" height="16px" xmlns="http://www.w3.org/2000/svg">
  <g transform="matrix(1 0 0 1 -187 -224 )">
    <path d="M 0 8  C 0 12.4182779986463  3.58172200135365 16  8 16  C 12.4182779986463 16  16 12.4182779986463  16 8  C 16 3.58172200135365  12.4182779986463 0  8 0  C 3.58172200135365 0  0 3.58172200135365  0 8  Z M 8.05980953125 7.520952375  L 9.9455238125 5.63523809375  C 10.016972957377 5.56383944513743  10.11384849086 5.52373234421652  10.214857140625 5.52373234421652  C 10.4252939569708 5.52373234421652  10.5958867026585 5.6943250899042  10.5958867026585 5.90476190625  C 10.5958867026585 6.00586390406114  10.5557056439926 6.10282108643843  10.48419046875 6.17428571875  L 8.5984761875 8.05980953125  L 10.48419046875 9.9455238125  C 10.5556056099358 10.0169642076501  10.5957240962203 10.1138430205734  10.5957240962203 10.214857140625  C 10.5957240962203 10.4252567527225  10.425161510535 10.5958193384078  10.2147618984375 10.5958193384078  C 10.1137011043637 10.5958193384078  10.0167814669935 10.5556638732516  9.945333328125 10.48419046875  L 8.059619046875 8.5984761875  L 6.174095234375 10.48419046875  C 6.10265483922487 10.5556056099358  6.00577602630156 10.5957240962203  5.90476190625 10.5957240962203  C 5.69436229415252 10.5957240962203  5.52379970846717 10.425161510535  5.52379970846717 10.2147618984375  C 5.52379970846717 10.1137011043637  5.56395517362341 10.0167814669935  5.635428578125 9.945333328125  L 7.521142859375 8.059619046875  L 5.635428578125 6.174095234375  C 5.566830935243 6.1030708225747  5.52849080994085 6.00818579823695  5.52849080994085 5.90944318494084  C 5.52849080994085 5.69904899781652  5.69904899781652 5.52849080994085  5.90944318494084 5.52849080994085  C 6.00818579823695 5.52849080994085  6.1030708225747 5.566830935243  6.174095234375 5.635428578125  L 8.05980953125 7.521142859375  Z " fill-rule="nonzero" fill="#000000" stroke="none" fill-opacity="0.372549019607843" transform="matrix(1 0 0 1 187 224 )" />
  </g>
</svg>