<?xml version="1.0" encoding="utf-8"?>
<svg version="1.1" xmlns:xlink="http://www.w3.org/1999/xlink" width="16px" height="19px" xmlns="http://www.w3.org/2000/svg">
  <g transform="matrix(1 0 0 1 -1170 -217 )">
    <path d="M 12.0416666666667 0.720982142857143  L 15.2916666666667 4.02901785714286  C 15.4861111111111 4.22693452380952  15.6527777777778 4.49553571428572  15.7916666666667 4.83482142857143  C 15.9305555555556 5.17410714285714  16 5.48511904761905  16 5.76785714285714  L 16 17.9821428571429  C 16 18.264880952381  15.9027777777778 18.5052083333333  15.7083333333333 18.703125  C 15.5138888888889 18.9010416666667  15.2777777777778 19  15 19  L 1 19  C 0.722222222222222 19  0.486111111111111 18.9010416666667  0.291666666666667 18.703125  C 0.0972222222222222 18.5052083333333  0 18.264880952381  0 17.9821428571429  L 0 1.01785714285714  C 0 0.735119047619047  0.0972222222222222 0.494791666666666  0.291666666666667 0.296875  C 0.486111111111111 0.098958333333334  0.722222222222222 0  1 0  L 10.3333333333333 0  C 10.6111111111111 0  10.9166666666667 0.0706845238095246  11.25 0.212053571428572  C 11.5833333333333 0.353422619047619  11.8472222222222 0.523065476190475  12.0416666666667 0.720982142857143  Z M 11.09375 1.67522321428572  C 11.0104166666667 1.59040178571428  10.8680555555556 1.51264880952381  10.6666666666667 1.44196428571428  L 10.6666666666667 5.42857142857143  L 14.5833333333333 5.42857142857143  C 14.5138888888889 5.22358630952381  14.4375 5.07868303571428  14.3541666666667 4.99386160714286  L 11.09375 1.67522321428572  Z M 1.33333333333333 17.6428571428571  L 14.6666666666667 17.6428571428571  L 14.6666666666667 6.78571428571428  L 10.3333333333333 6.78571428571428  C 10.0555555555556 6.78571428571428  9.81944444444444 6.68675595238095  9.625 6.48883928571428  C 9.43055555555556 6.29092261904762  9.33333333333333 6.05059523809524  9.33333333333333 5.76785714285714  L 9.33333333333333 1.35714285714286  L 1.33333333333333 1.35714285714286  L 1.33333333333333 17.6428571428571  Z M 10 9.5  L 13.3333333333333 12.8928571428571  L 13.3333333333333 16  L 2.66666666666667 16  L 2.66666666666667 14.25  L 4.66666666666667 12.2142857142857  L 6 13.5714285714286  L 10 9.5  Z M 6.08333333333333 10.2633928571429  C 5.69444444444445 10.6592261904762  5.22222222222222 10.8571428571429  4.66666666666667 10.8571428571429  C 4.11111111111111 10.8571428571429  3.63888888888889 10.6592261904762  3.25 10.2633928571429  C 2.86111111111111 9.86755952380953  2.66666666666667 9.38690476190476  2.66666666666667 8.82142857142857  C 2.66666666666667 8.25595238095238  2.86111111111111 7.77529761904762  3.25 7.37946428571428  C 3.63888888888889 6.98363095238095  4.11111111111111 6.78571428571428  4.66666666666667 6.78571428571428  C 5.22222222222222 6.78571428571428  5.69444444444445 6.98363095238095  6.08333333333333 7.37946428571428  C 6.47222222222222 7.77529761904762  6.66666666666667 8.25595238095238  6.66666666666667 8.82142857142857  C 6.66666666666667 9.38690476190476  6.47222222222222 9.86755952380953  6.08333333333333 10.2633928571429  Z " fill-rule="nonzero" fill="#0000ff" stroke="none" transform="matrix(1 0 0 1 1170 217 )" />
  </g>
</svg>