<?xml version="1.0" encoding="utf-8"?>
<svg version="1.1" xmlns:xlink="http://www.w3.org/1999/xlink" width="32px" height="16px" xmlns="http://www.w3.org/2000/svg">
  <g transform="matrix(1 0 0 1 -532 -89 )">
    <path d="M 19.625 9.8125  C 21.3108974358974 8.96955128205128  22.1538461538462 7.9551282051282  22.1538461538462 6.76923076923077  C 22.1538461538462 5.58333333333333  21.3108974358974 4.56891025641026  19.625 3.72596153846154  C 17.9391025641026 2.88301282051282  15.9102564102564 2.46153846153846  13.5384615384615 2.46153846153846  C 11.1666666666667 2.46153846153846  9.13782051282051 2.88301282051282  7.45192307692308 3.72596153846154  C 5.76602564102564 4.56891025641026  4.92307692307692 5.58333333333333  4.92307692307692 6.76923076923077  C 4.92307692307692 7.9551282051282  5.76602564102564 8.96955128205128  7.45192307692308 9.8125  C 9.13782051282051 10.6554487179487  11.1666666666667 11.0769230769231  13.5384615384615 11.0769230769231  C 15.9102564102564 11.0769230769231  17.9391025641026 10.6554487179487  19.625 9.8125  Z M 31.2884615384615 13.9038461538462  C 31.7628205128205 14.1410256410256  32 14.4294871794872  32 14.7692307692308  C 32 15.1025641025641  31.7564102564103 15.3910256410256  31.2692307692308 15.6346153846154  C 30.7820512820513 15.8782051282051  30.2051282051282 16  29.5384615384615 16  C 28.8461538461538 16  28.2692307692308 15.8782051282051  27.8076923076923 15.6346153846154  L 21.2115384615385 12.3461538461538  C 18.9166666666667 13.1410256410256  16.3589743589744 13.5384615384615  13.5384615384615 13.5384615384615  C 11.7051282051282 13.5384615384615  9.95192307692308 13.3605769230769  8.27884615384615 13.0048076923077  C 6.60576923076923 12.6490384615385  5.16346153846154 12.1682692307692  3.95192307692308 11.5625  C 2.74038461538462 10.9567307692308  1.77884615384615 10.2355769230769  1.06730769230769 9.39903846153846  C 0.355769230769231 8.5625  0 7.68589743589743  0 6.76923076923077  C 0 5.8525641025641  0.355769230769231 4.97596153846154  1.06730769230769 4.13942307692308  C 1.77884615384615 3.30288461538462  2.74038461538462 2.58173076923077  3.95192307692308 1.97596153846154  C 5.16346153846154 1.37019230769231  6.60576923076923 0.889423076923077  8.27884615384615 0.533653846153847  C 9.95192307692308 0.177884615384615  11.7051282051282 0  13.5384615384615 0  C 15.3717948717949 0  17.125 0.177884615384615  18.7980769230769 0.533653846153847  C 20.4711538461538 0.889423076923077  21.9134615384615 1.37019230769231  23.125 1.97596153846154  C 24.3365384615385 2.58173076923077  25.2980769230769 3.30288461538462  26.0096153846154 4.13942307692308  C 26.7211538461538 4.97596153846154  27.0769230769231 5.8525641025641  27.0769230769231 6.76923076923077  C 27.0769230769231 8.17948717948718  26.2820512820513 9.45833333333333  24.6923076923077 10.6057692307692  L 31.2884615384615 13.9038461538462  Z " fill-rule="nonzero" fill="#7f7f7f" stroke="none" transform="matrix(1 0 0 1 532 89 )" />
  </g>
</svg>