<?xml version="1.0" encoding="utf-8"?>
<svg version="1.1" xmlns:xlink="http://www.w3.org/1999/xlink" width="137px" height="85px" xmlns="http://www.w3.org/2000/svg">
  <g transform="matrix(1 0 0 1 -304 -163 )">
    <path d="M 304 163  L 441 163  L 441 248  L 304 248  L 304 163  " fill-rule="nonzero" fill="#cccccc" stroke="none" />
    <path d="M 310 169  L 435 169  L 435 242  L 310 242  L 310 169  " fill-rule="nonzero" fill="#ffffff" stroke="none" />
    <path d="M 381.615 188.5  C 378.045 188.5  375.24 185.695  375.24 182.125  C 375.24 178.555  378.045 175.75  381.615 175.75  C 385.185 175.75  387.99 178.555  387.99 182.125  C 387.99 185.695  385.185 188.5  381.615 188.5  " fill-rule="nonzero" fill="#cccccc" stroke="none" />
    <path d="M 312 240  L 312 202.05  L 342.25 184.8  L 384.6 214.313868613139  L 408.8 195.15  L 433 214.313868613139  L 433 240  L 312 240  " fill-rule="nonzero" fill="#169bd5" stroke="none" />
  </g>
</svg>