<?xml version="1.0" encoding="utf-8"?>
<svg version="1.1" xmlns:xlink="http://www.w3.org/1999/xlink" width="117px" height="116px" xmlns="http://www.w3.org/2000/svg">
  <g transform="matrix(1 0 0 1 -935 -177 )">
    <path d="M 52 8.92307692307692  L 52 62.0432692307692  L 88.96875 100.105769230769  C 84.1840277777778 105.125  78.5980902777778 109.028846153846  72.2109375 111.817307692308  C 65.8237847222222 114.605769230769  59.0868055555556 116  52 116  C 42.5659722222222 116  33.8654513888889 113.606570512821  25.8984375 108.819711538462  C 17.9314236111111 104.032852564103  11.6232638888889 97.5380608974359  6.97395833333333 89.3353365384615  C 2.32465277777778 81.1326121794872  0 72.1746794871795  0 62.4615384615385  C 0 52.7483974358974  2.32465277777778 43.7904647435897  6.97395833333333 35.5877403846154  C 11.6232638888889 27.385016025641  17.9314236111111 20.8902243589744  25.8984375 16.1033653846154  C 33.8654513888889 11.3165064102564  42.5659722222222 8.92307692307692  52 8.92307692307692  Z M 101.5625 100.524038461538  L 64.6614583333333 62  L 117 62  C 117 69.7580128205128  115.645833333333 76.6943108974359  112.9375 83.2704326923077  C 110.229166666667 89.8465544871795  106.4375 95.5977564102564  101.5625 100.524038461538  Z M 105.692708333333 26.6646634615385  C 110.342013888889 34.8673878205128  112.666666666667 43.8253205128205  112.666666666667 54  L 60 54  L 60 0  C 70.1006944444445 0  78.8012152777778 2.39342948717949  86.7682291666667 7.18028846153846  C 94.7352430555556 11.9671474358974  101.043402777778 18.4619391025641  105.692708333333 26.6646634615385  Z " fill-rule="nonzero" fill="#81d3f8" stroke="none" transform="matrix(1 0 0 1 935 177 )" />
  </g>
</svg>