<?xml version="1.0" encoding="utf-8"?>
<svg version="1.1" xmlns:xlink="http://www.w3.org/1999/xlink" width="1076px" height="114px" xmlns="http://www.w3.org/2000/svg">
  <g transform="matrix(1 0 0 1 -281 -126 )">
    <path d="M 0.5 0  L 0.5 112.477657935285  C 0 112.770169491525  0.667450611476954 113  1.51693320790216 113.5  L 536.699370198809 113.5  L 1073.4830667921 113  C 1074.33254938852 113  1075 112.770169491525  1075.5 112.477657935285  L 1075.5 0  L 0.5 0  Z " fill-rule="nonzero" fill="#ffffff" stroke="none" transform="matrix(1 0 0 1 281 126 )" />
    <path d="M 0.5 0  L 0.5 112.477657935285  C 0 112.770169491525  0.667450611476954 113  1.51693320790216 113.5  L 536.699370198809 113.5  L 1073.4830667921 113  C 1074.33254938852 113  1075 112.770169491525  1075.5 112.477657935285  L 1075.5 0  " stroke-width="1" stroke="#e9e9e9" fill="none" transform="matrix(1 0 0 1 281 126 )" />
  </g>
</svg>