<?xml version="1.0" encoding="utf-8"?>
<svg version="1.1" xmlns:xlink="http://www.w3.org/1999/xlink" width="12px" height="12px" viewBox="165 250  12 12" xmlns="http://www.w3.org/2000/svg">
  <path d="M 171 250  C 174.36 250  177 252.64  177 256  C 177 259.36  174.36 262  171 262  C 167.64 262  165 259.36  165 256  C 165 252.64  167.64 250  171 250  Z " fill-rule="nonzero" fill="#ffffff" stroke="none" />
  <path d="M 171 250.5  C 174.08 250.5  176.5 252.92  176.5 256  C 176.5 259.08  174.08 261.5  171 261.5  C 167.92 261.5  165.5 259.08  165.5 256  C 165.5 252.92  167.92 250.5  171 250.5  Z " stroke-width="1" stroke="#797979" fill="none" />
  <path d="M 171 259  C 169.32 259  168 257.68  168 256  C 168 254.32  169.32 253  171 253  C 172.68 253  174 254.32  174 256  C 174 257.68  172.68 259  171 259  " fill-rule="nonzero" fill="#797979" stroke="none" />
</svg>