<?xml version="1.0" encoding="utf-8"?>
<svg version="1.1" xmlns:xlink="http://www.w3.org/1999/xlink" width="104px" height="120px" xmlns="http://www.w3.org/2000/svg">
  <g transform="matrix(1 0 0 1 -633 -67 )">
    <path d="M 634 71  A 3 3 0 0 1 637 68 L 733 68  A 3 3 0 0 1 736 71 L 736 183  A 3 3 0 0 1 733 186 L 637 186  A 3 3 0 0 1 634 183 L 634 71  Z " fill-rule="nonzero" fill="#000000" stroke="none" fill-opacity="0.0196078431372549" />
    <path d="M 633.5 71  A 3.5 3.5 0 0 1 637 67.5 L 733 67.5  A 3.5 3.5 0 0 1 736.5 71 L 736.5 183  A 3.5 3.5 0 0 1 733 186.5 L 637 186.5  A 3.5 3.5 0 0 1 633.5 183 L 633.5 71  Z " stroke-width="1" stroke-dasharray="9,4" stroke="#000000" fill="none" stroke-opacity="0.149019607843137" stroke-dashoffset="0.5" />
  </g>
</svg>