<?xml version="1.0" encoding="utf-8"?>
<svg version="1.1" xmlns:xlink="http://www.w3.org/1999/xlink" width="18px" height="16px" xmlns="http://www.w3.org/2000/svg">
  <g transform="matrix(1 0 0 1 -517 -84 )">
    <path d="M 11.0390625 9.8125  C 11.9873798076923 8.96955128205128  12.4615384615385 7.9551282051282  12.4615384615385 6.76923076923077  C 12.4615384615385 5.58333333333333  11.9873798076923 4.56891025641026  11.0390625 3.72596153846154  C 10.0907451923077 2.88301282051282  8.94951923076923 2.46153846153846  7.61538461538462 2.46153846153846  C 6.28125 2.46153846153846  5.14002403846154 2.88301282051282  4.19170673076923 3.72596153846154  C 3.24338942307692 4.56891025641026  2.76923076923077 5.58333333333333  2.76923076923077 6.76923076923077  C 2.76923076923077 7.9551282051282  3.24338942307692 8.96955128205128  4.19170673076923 9.8125  C 5.14002403846154 10.6554487179487  6.28125 11.0769230769231  7.61538461538462 11.0769230769231  C 8.94951923076923 11.0769230769231  10.0907451923077 10.6554487179487  11.0390625 9.8125  Z M 17.5997596153846 13.9038461538462  C 17.8665865384615 14.1410256410256  18 14.4294871794872  18 14.7692307692308  C 18 15.1025641025641  17.8629807692308 15.3910256410256  17.5889423076923 15.6346153846154  C 17.3149038461538 15.8782051282051  16.9903846153846 16  16.6153846153846 16  C 16.2259615384615 16  15.9014423076923 15.8782051282051  15.6418269230769 15.6346153846154  L 11.9314903846154 12.3461538461538  C 10.640625 13.1410256410256  9.20192307692308 13.5384615384615  7.61538461538462 13.5384615384615  C 6.58413461538462 13.5384615384615  5.59795673076923 13.3605769230769  4.65685096153846 13.0048076923077  C 3.71574519230769 12.6490384615385  2.90444711538462 12.1682692307692  2.22295673076923 11.5625  C 1.54146634615385 10.9567307692308  1.00060096153846 10.2355769230769  0.600360576923077 9.39903846153846  C 0.200120192307692 8.5625  0 7.68589743589743  0 6.76923076923077  C 0 5.8525641025641  0.200120192307692 4.97596153846154  0.600360576923077 4.13942307692308  C 1.00060096153846 3.30288461538462  1.54146634615385 2.58173076923077  2.22295673076923 1.97596153846154  C 2.90444711538462 1.37019230769231  3.71574519230769 0.889423076923077  4.65685096153846 0.533653846153847  C 5.59795673076923 0.177884615384615  6.58413461538462 0  7.61538461538462 0  C 8.64663461538462 0  9.6328125 0.177884615384615  10.5739182692308 0.533653846153847  C 11.5150240384615 0.889423076923077  12.3263221153846 1.37019230769231  13.0078125 1.97596153846154  C 13.6893028846154 2.58173076923077  14.2301682692308 3.30288461538462  14.6304086538462 4.13942307692308  C 15.0306490384615 4.97596153846154  15.2307692307692 5.8525641025641  15.2307692307692 6.76923076923077  C 15.2307692307692 8.17948717948718  14.7836538461538 9.45833333333333  13.8894230769231 10.6057692307692  L 17.5997596153846 13.9038461538462  Z " fill-rule="nonzero" fill="#7f7f7f" stroke="none" transform="matrix(1 0 0 1 517 84 )" />
  </g>
</svg>