<?xml version="1.0" encoding="utf-8"?>
<svg version="1.1" xmlns:xlink="http://www.w3.org/1999/xlink" width="12px" height="12px" viewBox="465 368.5  12 12" xmlns="http://www.w3.org/2000/svg">
  <path d="M 471 368.5  C 474.36 368.5  477 371.14  477 374.5  C 477 377.86  474.36 380.5  471 380.5  C 467.64 380.5  465 377.86  465 374.5  C 465 371.14  467.64 368.5  471 368.5  Z " fill-rule="nonzero" fill="#ffffff" stroke="none" />
  <path d="M 471 369  C 474.08 369  476.5 371.42  476.5 374.5  C 476.5 377.58  474.08 380  471 380  C 467.92 380  465.5 377.58  465.5 374.5  C 465.5 371.42  467.92 369  471 369  Z " stroke-width="1" stroke="#797979" fill="none" />
  <path d="M 471 377.5  C 469.32 377.5  468 376.18  468 374.5  C 468 372.82  469.32 371.5  471 371.5  C 472.68 371.5  474 372.82  474 374.5  C 474 376.18  472.68 377.5  471 377.5  " fill-rule="nonzero" fill="#797979" stroke="none" />
</svg>