<?xml version="1.0" encoding="utf-8"?>
<svg version="1.1" xmlns:xlink="http://www.w3.org/1999/xlink" width="12px" height="12px" viewBox="389 370  12 12" xmlns="http://www.w3.org/2000/svg">
  <path d="M 395 370  C 398.36 370  401 372.64  401 376  C 401 379.36  398.36 382  395 382  C 391.64 382  389 379.36  389 376  C 389 372.64  391.64 370  395 370  Z " fill-rule="nonzero" fill="#ffffff" stroke="none" />
  <path d="M 395 370.5  C 398.08 370.5  400.5 372.92  400.5 376  C 400.5 379.08  398.08 381.5  395 381.5  C 391.92 381.5  389.5 379.08  389.5 376  C 389.5 372.92  391.92 370.5  395 370.5  Z " stroke-width="1" stroke="#797979" fill="none" />
  <path d="M 395 379  C 393.32 379  392 377.68  392 376  C 392 374.32  393.32 373  395 373  C 396.68 373  398 374.32  398 376  C 398 377.68  396.68 379  395 379  " fill-rule="nonzero" fill="#797979" stroke="none" />
</svg>