<?xml version="1.0" encoding="utf-8"?>
<svg version="1.1" xmlns:xlink="http://www.w3.org/1999/xlink" width="12px" height="12px" viewBox="389 368.5  12 12" xmlns="http://www.w3.org/2000/svg">
  <path d="M 395 368.5  C 398.36 368.5  401 371.14  401 374.5  C 401 377.86  398.36 380.5  395 380.5  C 391.64 380.5  389 377.86  389 374.5  C 389 371.14  391.64 368.5  395 368.5  Z " fill-rule="nonzero" fill="#ffffff" stroke="none" />
  <path d="M 395 369  C 398.08 369  400.5 371.42  400.5 374.5  C 400.5 377.58  398.08 380  395 380  C 391.92 380  389.5 377.58  389.5 374.5  C 389.5 371.42  391.92 369  395 369  Z " stroke-width="1" stroke="#797979" fill="none" />
  <path d="M 395 377.5  C 393.32 377.5  392 376.18  392 374.5  C 392 372.82  393.32 371.5  395 371.5  C 396.68 371.5  398 372.82  398 374.5  C 398 376.18  396.68 377.5  395 377.5  " fill-rule="nonzero" fill="#797979" stroke="none" />
</svg>