<?xml version="1.0" encoding="utf-8"?>
<svg version="1.1" xmlns:xlink="http://www.w3.org/1999/xlink" width="12px" height="12px" viewBox="465 370  12 12" xmlns="http://www.w3.org/2000/svg">
  <path d="M 471 370  C 474.36 370  477 372.64  477 376  C 477 379.36  474.36 382  471 382  C 467.64 382  465 379.36  465 376  C 465 372.64  467.64 370  471 370  Z " fill-rule="nonzero" fill="#ffffff" stroke="none" />
  <path d="M 471 370.5  C 474.08 370.5  476.5 372.92  476.5 376  C 476.5 379.08  474.08 381.5  471 381.5  C 467.92 381.5  465.5 379.08  465.5 376  C 465.5 372.92  467.92 370.5  471 370.5  Z " stroke-width="1" stroke="#797979" fill="none" />
  <path d="M 471 379  C 469.32 379  468 377.68  468 376  C 468 374.32  469.32 373  471 373  C 472.68 373  474 374.32  474 376  C 474 377.68  472.68 379  471 379  " fill-rule="nonzero" fill="#797979" stroke="none" />
</svg>