<?xml version="1.0" encoding="utf-8"?>
<svg version="1.1" xmlns:xlink="http://www.w3.org/1999/xlink" width="30px" height="28px" xmlns="http://www.w3.org/2000/svg">
  <g transform="matrix(1 0 0 1 -630 -53 )">
    <path d="M 645 53  C 653.4 53  660 59.16  660 67  C 660 74.84  653.4 81  645 81  C 636.6 81  630 74.84  630 67  C 630 59.16  636.6 53  645 53  Z " fill-rule="nonzero" fill="#ffffff" stroke="none" />
    <path d="M 645 53.5  C 653.12 53.5  659.5 59.44  659.5 67  C 659.5 74.56  653.12 80.5  645 80.5  C 636.88 80.5  630.5 74.56  630.5 67  C 630.5 59.44  636.88 53.5  645 53.5  Z " stroke-width="1" stroke="#d9001b" fill="none" />
  </g>
</svg>