<?xml version="1.0" encoding="utf-8"?>
<svg version="1.1" xmlns:xlink="http://www.w3.org/1999/xlink" width="30px" height="30px" xmlns="http://www.w3.org/2000/svg">
  <g transform="matrix(1 0 0 1 -130 -55 )">
    <path d="M 145 55  C 153.4 55  160 61.6  160 70  C 160 78.4  153.4 85  145 85  C 136.6 85  130 78.4  130 70  C 130 61.6  136.6 55  145 55  Z " fill-rule="nonzero" fill="#ffffff" stroke="none" />
    <path d="M 145 55.5  C 153.12 55.5  159.5 61.88  159.5 70  C 159.5 78.12  153.12 84.5  145 84.5  C 136.88 84.5  130.5 78.12  130.5 70  C 130.5 61.88  136.88 55.5  145 55.5  Z " stroke-width="1" stroke="#d9001b" fill="none" />
  </g>
</svg>