<?xml version="1.0" encoding="utf-8"?>
<svg version="1.1" xmlns:xlink="http://www.w3.org/1999/xlink" width="12px" height="12px" viewBox="21 113  12 12" xmlns="http://www.w3.org/2000/svg">
  <path d="M 27 113  C 30.36 113  33 115.64  33 119  C 33 122.36  30.36 125  27 125  C 23.64 125  21 122.36  21 119  C 21 115.64  23.64 113  27 113  Z " fill-rule="nonzero" fill="#f0f0f0" stroke="none" />
  <path d="M 27 113.5  C 30.08 113.5  32.5 115.92  32.5 119  C 32.5 122.08  30.08 124.5  27 124.5  C 23.92 124.5  21.5 122.08  21.5 119  C 21.5 115.92  23.92 113.5  27 113.5  Z " stroke-width="1" stroke="#797979" fill="none" />
  <path d="M 27 122  C 25.32 122  24 120.68  24 119  C 24 117.32  25.32 116  27 116  C 28.68 116  30 117.32  30 119  C 30 120.68  28.68 122  27 122  " fill-rule="nonzero" fill="#797979" stroke="none" />
</svg>