<?xml version="1.0" encoding="utf-8"?>
<svg version="1.1" xmlns:xlink="http://www.w3.org/1999/xlink" width="16px" height="13px" xmlns="http://www.w3.org/2000/svg">
  <g transform="matrix(1 0 0 1 -153 -16 )">
    <path d="M 9.8125 7.97265625  C 10.6554487179487 7.28776041666667  11.0769230769231 6.46354166666667  11.0769230769231 5.5  C 11.0769230769231 4.53645833333333  10.6554487179487 3.71223958333333  9.8125 3.02734375  C 8.96955128205128 2.34244791666667  7.95512820512821 2  6.76923076923077 2  C 5.58333333333333 2  4.56891025641026 2.34244791666667  3.72596153846154 3.02734375  C 2.88301282051282 3.71223958333333  2.46153846153846 4.53645833333333  2.46153846153846 5.5  C 2.46153846153846 6.46354166666667  2.88301282051282 7.28776041666667  3.72596153846154 7.97265625  C 4.56891025641026 8.65755208333333  5.58333333333333 9  6.76923076923077 9  C 7.95512820512821 9  8.96955128205128 8.65755208333333  9.8125 7.97265625  Z M 15.6442307692308 11.296875  C 15.8814102564103 11.4895833333333  16 11.7239583333333  16 12  C 16 12.2708333333333  15.8782051282051 12.5052083333333  15.6346153846154 12.703125  C 15.3910256410256 12.9010416666667  15.1025641025641 13  14.7692307692308 13  C 14.4230769230769 13  14.1346153846154 12.9010416666667  13.9038461538462 12.703125  L 10.6057692307692 10.03125  C 9.45833333333333 10.6770833333333  8.17948717948718 11  6.76923076923077 11  C 5.8525641025641 11  4.97596153846154 10.85546875  4.13942307692308 10.56640625  C 3.30288461538462 10.27734375  2.58173076923077 9.88671875  1.97596153846154 9.39453125  C 1.37019230769231 8.90234375  0.889423076923077 8.31640625  0.533653846153846 7.63671875  C 0.177884615384615 6.95703125  0 6.24479166666667  0 5.5  C 0 4.75520833333333  0.177884615384615 4.04296875  0.533653846153846 3.36328125  C 0.889423076923077 2.68359375  1.37019230769231 2.09765625  1.97596153846154 1.60546875  C 2.58173076923077 1.11328125  3.30288461538462 0.72265625  4.13942307692308 0.43359375  C 4.97596153846154 0.14453125  5.8525641025641 0  6.76923076923077 0  C 7.68589743589744 0  8.5625 0.14453125  9.39903846153846 0.43359375  C 10.2355769230769 0.72265625  10.9567307692308 1.11328125  11.5625 1.60546875  C 12.1682692307692 2.09765625  12.6490384615385 2.68359375  13.0048076923077 3.36328125  C 13.3605769230769 4.04296875  13.5384615384615 4.75520833333333  13.5384615384615 5.5  C 13.5384615384615 6.64583333333333  13.1410256410256 7.68489583333333  12.3461538461538 8.6171875  L 15.6442307692308 11.296875  Z " fill-rule="nonzero" fill="#7f7f7f" stroke="none" transform="matrix(1 0 0 1 153 16 )" />
  </g>
</svg>