<?xml version="1.0" encoding="utf-8"?>
<svg version="1.1" xmlns:xlink="http://www.w3.org/1999/xlink" width="800px" height="32px" xmlns="http://www.w3.org/2000/svg">
  <g transform="matrix(1 0 0 1 -25 -380 )">
    <path d="M 26 384  A 3 3 0 0 1 29 381 L 821 381  A 3 3 0 0 1 824 384 L 824 408  A 3 3 0 0 1 821 411 L 29 411  A 3 3 0 0 1 26 408 L 26 384  Z " fill-rule="nonzero" fill="#ffffff" stroke="none" />
    <path d="M 25.5 384  A 3.5 3.5 0 0 1 29 380.5 L 821 380.5  A 3.5 3.5 0 0 1 824.5 384 L 824.5 408  A 3.5 3.5 0 0 1 821 411.5 L 29 411.5  A 3.5 3.5 0 0 1 25.5 408 L 25.5 384  Z " stroke-width="1" stroke-dasharray="9,4" stroke="#d9d9d9" fill="none" stroke-dashoffset="0.5" />
  </g>
</svg>