<?xml version="1.0" encoding="utf-8"?>
<svg version="1.1" xmlns:xlink="http://www.w3.org/1999/xlink" width="949px" height="189px" xmlns="http://www.w3.org/2000/svg">
  <g transform="matrix(1 0 0 1 0 -1 )">
    <path d="M 0.5 0  L 0.5 187.130970724191  C 0 187.617627118644  0.588598306679212 188  1.33772342427093 188.5  L 473.293956231136 188.5  L 946.662276575729 188  C 947.411401693321 188  948 187.617627118644  948.5 187.130970724191  L 948.5 0  L 0.5 0  Z " fill-rule="nonzero" fill="#ffffff" stroke="none" transform="matrix(1 0 0 1 0 1 )" />
    <path d="M 0.5 0  L 0.5 187.130970724191  C 0 187.617627118644  0.588598306679212 188  1.33772342427093 188.5  L 473.293956231136 188.5  L 946.662276575729 188  C 947.411401693321 188  948 187.617627118644  948.5 187.130970724191  L 948.5 0  " stroke-width="1" stroke="#e9e9e9" fill="none" transform="matrix(1 0 0 1 0 1 )" />
  </g>
</svg>