<?xml version="1.0" encoding="utf-8"?>
<svg version="1.1" xmlns:xlink="http://www.w3.org/1999/xlink" width="800px" height="32px" xmlns="http://www.w3.org/2000/svg">
  <g transform="matrix(1 0 0 1 -25 -359 )">
    <path d="M 26 363  A 3 3 0 0 1 29 360 L 821 360  A 3 3 0 0 1 824 363 L 824 387  A 3 3 0 0 1 821 390 L 29 390  A 3 3 0 0 1 26 387 L 26 363  Z " fill-rule="nonzero" fill="#ffffff" stroke="none" />
    <path d="M 25.5 363  A 3.5 3.5 0 0 1 29 359.5 L 821 359.5  A 3.5 3.5 0 0 1 824.5 363 L 824.5 387  A 3.5 3.5 0 0 1 821 390.5 L 29 390.5  A 3.5 3.5 0 0 1 25.5 387 L 25.5 363  Z " stroke-width="1" stroke-dasharray="9,4" stroke="#d9d9d9" fill="none" stroke-dashoffset="0.5" />
  </g>
</svg>