<?xml version="1.0" encoding="utf-8"?>
<svg version="1.1" xmlns:xlink="http://www.w3.org/1999/xlink" width="18px" height="6px" xmlns="http://www.w3.org/2000/svg">
  <g transform="matrix(1 0 0 1 -405 -144 )">
    <path d="M 17.666015625 0.197916666666667  C 17.888671875 0.32986111111111  18 0.48611111111111  18 0.666666666666667  C 18 0.847222222222222  17.888671875 1.00347222222222  17.666015625 1.13541666666667  L 9.791015625 5.80208333333333  C 9.568359375 5.93402777777778  9.3046875 6  9 6  C 8.6953125 6  8.431640625 5.93402777777778  8.208984375 5.80208333333333  L 0.333984375 1.13541666666667  C 0.111328125 1.00347222222222  0 0.847222222222222  0 0.666666666666667  C 0 0.48611111111111  0.111328125 0.32986111111111  0.333984375 0.197916666666667  C 0.556640625 0.0659722222222214  0.8203125 0  1.125 0  L 16.875 0  C 17.1796875 0  17.443359375 0.0659722222222214  17.666015625 0.197916666666667  Z " fill-rule="nonzero" fill="#000000" stroke="none" fill-opacity="0.501960784313725" transform="matrix(1 0 0 1 405 144 )" />
  </g>
</svg>