<?xml version="1.0" encoding="utf-8"?>
<svg version="1.1" xmlns:xlink="http://www.w3.org/1999/xlink" width="31px" height="16px" xmlns="http://www.w3.org/2000/svg">
  <g transform="matrix(1 0 0 1 -395 -139 )">
    <path d="M 19.01171875 9.8125  C 20.6449318910256 8.96955128205128  21.4615384615385 7.9551282051282  21.4615384615385 6.76923076923077  C 21.4615384615385 5.58333333333333  20.6449318910256 4.56891025641026  19.01171875 3.72596153846154  C 17.3785056089744 2.88301282051282  15.4130608974359 2.46153846153846  13.1153846153846 2.46153846153846  C 10.8177083333333 2.46153846153846  8.85226362179487 2.88301282051282  7.21905048076923 3.72596153846154  C 5.58583733974359 4.56891025641026  4.76923076923077 5.58333333333333  4.76923076923077 6.76923076923077  C 4.76923076923077 7.9551282051282  5.58583733974359 8.96955128205128  7.21905048076923 9.8125  C 8.85226362179487 10.6554487179487  10.8177083333333 11.0769230769231  13.1153846153846 11.0769230769231  C 15.4130608974359 11.0769230769231  17.3785056089744 10.6554487179487  19.01171875 9.8125  Z M 30.3106971153846 13.9038461538462  C 30.7702323717949 14.1410256410256  31 14.4294871794872  31 14.7692307692308  C 31 15.1025641025641  30.7640224358974 15.3910256410256  30.2920673076923 15.6346153846154  C 29.8201121794872 15.8782051282051  29.261217948718 16  28.6153846153846 16  C 27.9447115384615 16  27.3858173076923 15.8782051282051  26.9387019230769 15.6346153846154  L 20.5486778846154 12.3461538461538  C 18.3255208333333 13.1410256410256  15.8477564102564 13.5384615384615  13.1153846153846 13.5384615384615  C 11.3393429487179 13.5384615384615  9.64092548076923 13.3605769230769  8.02013221153846 13.0048076923077  C 6.39933894230769 12.6490384615385  5.00210336538462 12.1682692307692  3.82842548076923 11.5625  C 2.65474759615385 10.9567307692308  1.72325721153846 10.2355769230769  1.03395432692308 9.39903846153846  C 0.344651442307692 8.5625  0 7.68589743589743  0 6.76923076923077  C 0 5.8525641025641  0.344651442307692 4.97596153846154  1.03395432692308 4.13942307692308  C 1.72325721153846 3.30288461538462  2.65474759615385 2.58173076923077  3.82842548076923 1.97596153846154  C 5.00210336538462 1.37019230769231  6.39933894230769 0.889423076923077  8.02013221153846 0.533653846153847  C 9.64092548076923 0.177884615384615  11.3393429487179 0  13.1153846153846 0  C 14.8914262820513 0  16.58984375 0.177884615384615  18.2106370192308 0.533653846153847  C 19.8314302884615 0.889423076923077  21.2286658653846 1.37019230769231  22.40234375 1.97596153846154  C 23.5760216346154 2.58173076923077  24.5075120192308 3.30288461538462  25.1968149038462 4.13942307692308  C 25.8861177884615 4.97596153846154  26.2307692307692 5.8525641025641  26.2307692307692 6.76923076923077  C 26.2307692307692 8.17948717948718  25.4607371794872 9.45833333333333  23.9206730769231 10.6057692307692  L 30.3106971153846 13.9038461538462  Z " fill-rule="nonzero" fill="#7f7f7f" stroke="none" transform="matrix(1 0 0 1 395 139 )" />
  </g>
</svg>