<?xml version="1.0" encoding="utf-8"?>
<svg version="1.1" xmlns:xlink="http://www.w3.org/1999/xlink" width="25px" height="16px" xmlns="http://www.w3.org/2000/svg">
  <g transform="matrix(1 0 0 1 -501 -78 )">
    <path d="M 15.33203125 9.8125  C 16.6491386217949 8.96955128205128  17.3076923076923 7.9551282051282  17.3076923076923 6.76923076923077  C 17.3076923076923 5.58333333333333  16.6491386217949 4.56891025641026  15.33203125 3.72596153846154  C 14.0149238782051 2.88301282051282  12.4298878205128 2.46153846153846  10.5769230769231 2.46153846153846  C 8.72395833333333 2.46153846153846  7.13892227564103 2.88301282051282  5.82181490384615 3.72596153846154  C 4.50470753205128 4.56891025641026  3.84615384615385 5.58333333333333  3.84615384615385 6.76923076923077  C 3.84615384615385 7.9551282051282  4.50470753205128 8.96955128205128  5.82181490384615 9.8125  C 7.13892227564103 10.6554487179487  8.72395833333333 11.0769230769231  10.5769230769231 11.0769230769231  C 12.4298878205128 11.0769230769231  14.0149238782051 10.6554487179487  15.33203125 9.8125  Z M 24.4441105769231 13.9038461538462  C 24.814703525641 14.1410256410256  25 14.4294871794872  25 14.7692307692308  C 25 15.1025641025641  24.8096955128205 15.3910256410256  24.4290865384615 15.6346153846154  C 24.0484775641026 15.8782051282051  23.5977564102564 16  23.0769230769231 16  C 22.5360576923077 16  22.0853365384615 15.8782051282051  21.7247596153846 15.6346153846154  L 16.5715144230769 12.3461538461538  C 14.7786458333333 13.1410256410256  12.7804487179487 13.5384615384615  10.5769230769231 13.5384615384615  C 9.14463141025641 13.5384615384615  7.77493990384615 13.3605769230769  6.46784855769231 13.0048076923077  C 5.16075721153846 12.6490384615385  4.03395432692308 12.1682692307692  3.08743990384615 11.5625  C 2.14092548076923 10.9567307692308  1.38972355769231 10.2355769230769  0.833834134615385 9.39903846153846  C 0.277944711538462 8.5625  0 7.68589743589743  0 6.76923076923077  C 0 5.8525641025641  0.277944711538462 4.97596153846154  0.833834134615385 4.13942307692308  C 1.38972355769231 3.30288461538462  2.14092548076923 2.58173076923077  3.08743990384615 1.97596153846154  C 4.03395432692308 1.37019230769231  5.16075721153846 0.889423076923077  6.46784855769231 0.533653846153847  C 7.77493990384615 0.177884615384615  9.14463141025641 0  10.5769230769231 0  C 12.0092147435897 0  13.37890625 0.177884615384615  14.6859975961538 0.533653846153847  C 15.9930889423077 0.889423076923077  17.1198918269231 1.37019230769231  18.06640625 1.97596153846154  C 19.0129206730769 2.58173076923077  19.7641225961538 3.30288461538462  20.3200120192308 4.13942307692308  C 20.8759014423077 4.97596153846154  21.1538461538462 5.8525641025641  21.1538461538462 6.76923076923077  C 21.1538461538462 8.17948717948718  20.5328525641026 9.45833333333333  19.2908653846154 10.6057692307692  L 24.4441105769231 13.9038461538462  Z " fill-rule="nonzero" fill="#7f7f7f" stroke="none" transform="matrix(1 0 0 1 501 78 )" />
  </g>
</svg>