<?xml version="1.0" encoding="utf-8"?>
<svg version="1.1" xmlns:xlink="http://www.w3.org/1999/xlink" width="350px" height="32px" xmlns="http://www.w3.org/2000/svg">
  <g transform="matrix(1 0 0 1 -38 -111 )">
    <path d="M 39 115  A 3 3 0 0 1 42 112 L 384 112  A 3 3 0 0 1 387 115 L 387 139  A 3 3 0 0 1 384 142 L 42 142  A 3 3 0 0 1 39 139 L 39 115  Z " fill-rule="nonzero" fill="#ffffff" stroke="none" />
    <path d="M 38.5 115  A 3.5 3.5 0 0 1 42 111.5 L 384 111.5  A 3.5 3.5 0 0 1 387.5 115 L 387.5 139  A 3.5 3.5 0 0 1 384 142.5 L 42 142.5  A 3.5 3.5 0 0 1 38.5 139 L 38.5 115  Z " stroke-width="1" stroke-dasharray="9,4" stroke="#d9d9d9" fill="none" stroke-dashoffset="0.5" />
  </g>
</svg>