<?xml version="1.0" encoding="utf-8"?>
<svg version="1.1" xmlns:xlink="http://www.w3.org/1999/xlink" width="12px" height="12px" viewBox="148 169  12 12" xmlns="http://www.w3.org/2000/svg">
  <path d="M 154 169  C 157.36 169  160 171.64  160 175  C 160 178.36  157.36 181  154 181  C 150.64 181  148 178.36  148 175  C 148 171.64  150.64 169  154 169  Z " fill-rule="nonzero" fill="#ffffff" stroke="none" />
  <path d="M 154 169.5  C 157.08 169.5  159.5 171.92  159.5 175  C 159.5 178.08  157.08 180.5  154 180.5  C 150.92 180.5  148.5 178.08  148.5 175  C 148.5 171.92  150.92 169.5  154 169.5  Z " stroke-width="1" stroke="#797979" fill="none" />
  <path d="M 154 178  C 152.32 178  151 176.68  151 175  C 151 173.32  152.32 172  154 172  C 155.68 172  157 173.32  157 175  C 157 176.68  155.68 178  154 178  " fill-rule="nonzero" fill="#797979" stroke="none" />
</svg>