<?xml version="1.0" encoding="utf-8"?>
<svg version="1.1" xmlns:xlink="http://www.w3.org/1999/xlink" width="12px" height="12px" viewBox="219 167.5  12 12" xmlns="http://www.w3.org/2000/svg">
  <path d="M 225 167.5  C 228.36 167.5  231 170.14  231 173.5  C 231 176.86  228.36 179.5  225 179.5  C 221.64 179.5  219 176.86  219 173.5  C 219 170.14  221.64 167.5  225 167.5  Z " fill-rule="nonzero" fill="#f0f0f0" stroke="none" />
  <path d="M 225 168  C 228.08 168  230.5 170.42  230.5 173.5  C 230.5 176.58  228.08 179  225 179  C 221.92 179  219.5 176.58  219.5 173.5  C 219.5 170.42  221.92 168  225 168  Z " stroke-width="1" stroke="#797979" fill="none" />
  <path d="M 225 176.5  C 223.32 176.5  222 175.18  222 173.5  C 222 171.82  223.32 170.5  225 170.5  C 226.68 170.5  228 171.82  228 173.5  C 228 175.18  226.68 176.5  225 176.5  " fill-rule="nonzero" fill="#797979" stroke="none" />
</svg>