<?xml version="1.0" encoding="utf-8"?>
<svg version="1.1" xmlns:xlink="http://www.w3.org/1999/xlink" width="350px" height="32px" xmlns="http://www.w3.org/2000/svg">
  <g transform="matrix(1 0 0 1 -38 -294 )">
    <path d="M 39 298  A 3 3 0 0 1 42 295 L 384 295  A 3 3 0 0 1 387 298 L 387 322  A 3 3 0 0 1 384 325 L 42 325  A 3 3 0 0 1 39 322 L 39 298  Z " fill-rule="nonzero" fill="#ffffff" stroke="none" />
    <path d="M 38.5 298  A 3.5 3.5 0 0 1 42 294.5 L 384 294.5  A 3.5 3.5 0 0 1 387.5 298 L 387.5 322  A 3.5 3.5 0 0 1 384 325.5 L 42 325.5  A 3.5 3.5 0 0 1 38.5 322 L 38.5 298  Z " stroke-width="1" stroke-dasharray="9,4" stroke="#d9d9d9" fill="none" stroke-dashoffset="0.5" />
  </g>
</svg>