<?xml version="1.0" encoding="utf-8"?>
<svg version="1.1" xmlns:xlink="http://www.w3.org/1999/xlink" width="30px" height="30px" xmlns="http://www.w3.org/2000/svg">
  <g transform="matrix(1 0 0 1 -150 -65 )">
    <path d="M 165 65  C 173.4 65  180 71.6  180 80  C 180 88.4  173.4 95  165 95  C 156.6 95  150 88.4  150 80  C 150 71.6  156.6 65  165 65  Z " fill-rule="nonzero" fill="#ffffff" stroke="none" />
    <path d="M 165 65.5  C 173.12 65.5  179.5 71.88  179.5 80  C 179.5 88.12  173.12 94.5  165 94.5  C 156.88 94.5  150.5 88.12  150.5 80  C 150.5 71.88  156.88 65.5  165 65.5  Z " stroke-width="1" stroke="#d9001b" fill="none" />
  </g>
</svg>