<?xml version="1.0" encoding="utf-8"?>
<svg version="1.1" xmlns:xlink="http://www.w3.org/1999/xlink" width="50px" height="50px" xmlns="http://www.w3.org/2000/svg">
  <g transform="matrix(1 0 0 1 -325 -47 )">
    <path d="M 350 47  C 364 47  375 58  375 72  C 375 86  364 97  350 97  C 336 97  325 86  325 72  C 325 58  336 47  350 47  Z " fill-rule="nonzero" fill="#ffffff" stroke="none" />
    <path d="M 350 47.5  C 363.72 47.5  374.5 58.28  374.5 72  C 374.5 85.72  363.72 96.5  350 96.5  C 336.28 96.5  325.5 85.72  325.5 72  C 325.5 58.28  336.28 47.5  350 47.5  Z " stroke-width="1" stroke="#d9001b" fill="none" />
  </g>
</svg>