<?xml version="1.0" encoding="utf-8"?>
<svg version="1.1" xmlns:xlink="http://www.w3.org/1999/xlink" width="52px" height="52px" xmlns="http://www.w3.org/2000/svg">
  <g transform="matrix(1 0 0 1 -1260 -52 )">
    <path d="M 1286 52  C 1300.56 52  1312 63.44  1312 78  C 1312 92.56  1300.56 104  1286 104  C 1271.44 104  1260 92.56  1260 78  C 1260 63.44  1271.44 52  1286 52  Z " fill-rule="nonzero" fill="#ffffff" stroke="none" />
    <path d="M 1286 52.5  C 1300.28 52.5  1311.5 63.72  1311.5 78  C 1311.5 92.28  1300.28 103.5  1286 103.5  C 1271.72 103.5  1260.5 92.28  1260.5 78  C 1260.5 63.72  1271.72 52.5  1286 52.5  Z " stroke-width="1" stroke="#d9001b" fill="none" />
  </g>
</svg>