<?xml version="1.0" encoding="utf-8"?>
<svg version="1.1" xmlns:xlink="http://www.w3.org/1999/xlink" width="104px" height="104px" xmlns="http://www.w3.org/2000/svg">
  <g transform="matrix(1 0 0 1 -364 -71 )">
    <path d="M 365 75  A 3 3 0 0 1 368 72 L 464 72  A 3 3 0 0 1 467 75 L 467 171  A 3 3 0 0 1 464 174 L 368 174  A 3 3 0 0 1 365 171 L 365 75  Z " fill-rule="nonzero" fill="#000000" stroke="none" fill-opacity="0.0196078431372549" />
    <path d="M 364.5 75  A 3.5 3.5 0 0 1 368 71.5 L 464 71.5  A 3.5 3.5 0 0 1 467.5 75 L 467.5 171  A 3.5 3.5 0 0 1 464 174.5 L 368 174.5  A 3.5 3.5 0 0 1 364.5 171 L 364.5 75  Z " stroke-width="1" stroke-dasharray="9,4" stroke="#000000" fill="none" stroke-opacity="0.149019607843137" stroke-dashoffset="0.5" />
  </g>
</svg>