<?xml version="1.0" encoding="utf-8"?>
<svg version="1.1" xmlns:xlink="http://www.w3.org/1999/xlink" width="15px" height="15px" xmlns="http://www.w3.org/2000/svg">
  <g transform="matrix(1 0 0 1 -29 -76 )">
    <path d="M 4.9453125 1.453125  C 5.75390625 1.1103515625  6.61376953125 0.9375  7.5 0.9375  C 8.38623046875 0.9375  9.24609375 1.1103515625  10.0546875 1.453125  C 10.83544921875 1.7841796875  11.53857421875 2.25732421875  12.140625 2.859375  C 12.744140625 3.462890625  13.21728515625 4.16455078125  13.546875 4.9453125  C 13.8896484375 5.75390625  14.0625 6.61376953125  14.0625 7.5  C 14.0625 8.38623046875  13.8896484375 9.24609375  13.546875 10.0546875  C 13.2158203125 10.83544921875  12.74267578125 11.53857421875  12.140625 12.140625  C 11.537109375 12.744140625  10.83544921875 13.21728515625  10.0546875 13.546875  C 9.24609375 13.8896484375  8.38623046875 14.0625  7.5 14.0625  C 6.61376953125 14.0625  5.75390625 13.8896484375  4.9453125 13.546875  C 4.16455078125 13.2158203125  3.46142578125 12.74267578125  2.859375 12.140625  C 2.255859375 11.537109375  1.78271484375 10.83544921875  1.453125 10.0546875  C 1.1103515625 9.24609375  0.9375 8.38623046875  0.9375 7.5  C 0.9375 6.61376953125  1.1103515625 5.75390625  1.453125 4.9453125  C 1.7841796875 4.16455078125  2.25732421875 3.46142578125  2.859375 2.859375  C 3.46142578125 2.25732421875  4.16455078125 1.78271484375  4.9453125 1.453125  Z M 15 7.5  C 15 3.357421875  11.642578125 0  7.5 0  C 3.357421875 0  0 3.357421875  0 7.5  C 0 11.642578125  3.357421875 15  7.5 15  C 11.642578125 15  15 11.642578125  15 7.5  Z " fill-rule="nonzero" fill="#1890ff" stroke="none" transform="matrix(1 0 0 1 29 76 )" />
  </g>
</svg>