<?xml version="1.0" encoding="utf-8"?>
<svg version="1.1" xmlns:xlink="http://www.w3.org/1999/xlink" width="1081px" height="189px" xmlns="http://www.w3.org/2000/svg">
  <g transform="matrix(1 0 0 1 -278 -64 )">
    <path d="M 0.5 0  L 0.5 187.130970724191  C 0 187.617627118644  0.670555032925684 188  1.52398871119473 188.5  L 539.195646339269 188.5  L 1078.47601128881 188  C 1079.32944496707 188  1080 187.617627118644  1080.5 187.130970724191  L 1080.5 0  L 0.5 0  Z " fill-rule="nonzero" fill="#ffffff" stroke="none" transform="matrix(1 0 0 1 278 64 )" />
    <path d="M 0.5 0  L 0.5 187.130970724191  C 0 187.617627118644  0.670555032925684 188  1.52398871119473 188.5  L 539.195646339269 188.5  L 1078.47601128881 188  C 1079.32944496707 188  1080 187.617627118644  1080.5 187.130970724191  L 1080.5 0  " stroke-width="1" stroke="#e9e9e9" fill="none" transform="matrix(1 0 0 1 278 64 )" />
  </g>
</svg>