<?xml version="1.0" encoding="utf-8"?>
<svg version="1.1" xmlns:xlink="http://www.w3.org/1999/xlink" width="15px" height="15px" xmlns="http://www.w3.org/2000/svg">
  <g transform="matrix(1 0 0 1 -258 -152 )">
    <path d="M 265.5 152  C 269.7 152  273 155.3  273 159.5  C 273 163.7  269.7 167  265.5 167  C 261.3 167  258 163.7  258 159.5  C 258 155.3  261.3 152  265.5 152  Z " fill-rule="nonzero" fill="#ffffff" stroke="none" />
    <path d="M 265.5 152.5  C 269.42 152.5  272.5 155.58  272.5 159.5  C 272.5 163.42  269.42 166.5  265.5 166.5  C 261.58 166.5  258.5 163.42  258.5 159.5  C 258.5 155.58  261.58 152.5  265.5 152.5  Z " stroke-width="1" stroke="#797979" fill="none" />
  </g>
</svg>