<?xml version="1.0" encoding="utf-8"?>
<svg version="1.1" xmlns:xlink="http://www.w3.org/1999/xlink" width="12px" height="12px" viewBox="162 252  12 12" xmlns="http://www.w3.org/2000/svg">
  <path d="M 168 252  C 171.36 252  174 254.64  174 258  C 174 261.36  171.36 264  168 264  C 164.64 264  162 261.36  162 258  C 162 254.64  164.64 252  168 252  Z " fill-rule="nonzero" fill="#ffffff" stroke="none" />
  <path d="M 168 252.5  C 171.08 252.5  173.5 254.92  173.5 258  C 173.5 261.08  171.08 263.5  168 263.5  C 164.92 263.5  162.5 261.08  162.5 258  C 162.5 254.92  164.92 252.5  168 252.5  Z " stroke-width="1" stroke="#797979" fill="none" />
  <path d="M 168 261  C 166.32 261  165 259.68  165 258  C 165 256.32  166.32 255  168 255  C 169.68 255  171 256.32  171 258  C 171 259.68  169.68 261  168 261  " fill-rule="nonzero" fill="#797979" stroke="none" />
</svg>