<?xml version="1.0" encoding="utf-8"?>
<svg version="1.1" xmlns:xlink="http://www.w3.org/1999/xlink" width="12px" height="12px" viewBox="162 293.5  12 12" xmlns="http://www.w3.org/2000/svg">
  <path d="M 168 293.5  C 171.36 293.5  174 296.14  174 299.5  C 174 302.86  171.36 305.5  168 305.5  C 164.64 305.5  162 302.86  162 299.5  C 162 296.14  164.64 293.5  168 293.5  Z " fill-rule="nonzero" fill="#f0f0f0" stroke="none" />
  <path d="M 168 294  C 171.08 294  173.5 296.42  173.5 299.5  C 173.5 302.58  171.08 305  168 305  C 164.92 305  162.5 302.58  162.5 299.5  C 162.5 296.42  164.92 294  168 294  Z " stroke-width="1" stroke="#797979" fill="none" />
  <path d="M 168 302.5  C 166.32 302.5  165 301.18  165 299.5  C 165 297.82  166.32 296.5  168 296.5  C 169.68 296.5  171 297.82  171 299.5  C 171 301.18  169.68 302.5  168 302.5  " fill-rule="nonzero" fill="#797979" stroke="none" />
</svg>