<?xml version="1.0" encoding="utf-8"?>
<svg version="1.1" xmlns:xlink="http://www.w3.org/1999/xlink" width="12px" height="12px" viewBox="223 293.5  12 12" xmlns="http://www.w3.org/2000/svg">
  <path d="M 229 293.5  C 232.36 293.5  235 296.14  235 299.5  C 235 302.86  232.36 305.5  229 305.5  C 225.64 305.5  223 302.86  223 299.5  C 223 296.14  225.64 293.5  229 293.5  Z " fill-rule="nonzero" fill="#f0f0f0" stroke="none" />
  <path d="M 229 294  C 232.08 294  234.5 296.42  234.5 299.5  C 234.5 302.58  232.08 305  229 305  C 225.92 305  223.5 302.58  223.5 299.5  C 223.5 296.42  225.92 294  229 294  Z " stroke-width="1" stroke="#797979" fill="none" />
  <path d="M 229 302.5  C 227.32 302.5  226 301.18  226 299.5  C 226 297.82  227.32 296.5  229 296.5  C 230.68 296.5  232 297.82  232 299.5  C 232 301.18  230.68 302.5  229 302.5  " fill-rule="nonzero" fill="#797979" stroke="none" />
</svg>