<?xml version="1.0" encoding="utf-8"?>
<svg version="1.1" xmlns:xlink="http://www.w3.org/1999/xlink" width="12px" height="12px" viewBox="223 295  12 12" xmlns="http://www.w3.org/2000/svg">
  <path d="M 229 295  C 232.36 295  235 297.64  235 301  C 235 304.36  232.36 307  229 307  C 225.64 307  223 304.36  223 301  C 223 297.64  225.64 295  229 295  Z " fill-rule="nonzero" fill="#ffffff" stroke="none" />
  <path d="M 229 295.5  C 232.08 295.5  234.5 297.92  234.5 301  C 234.5 304.08  232.08 306.5  229 306.5  C 225.92 306.5  223.5 304.08  223.5 301  C 223.5 297.92  225.92 295.5  229 295.5  Z " stroke-width="1" stroke="#797979" fill="none" />
  <path d="M 229 304  C 227.32 304  226 302.68  226 301  C 226 299.32  227.32 298  229 298  C 230.68 298  232 299.32  232 301  C 232 302.68  230.68 304  229 304  " fill-rule="nonzero" fill="#797979" stroke="none" />
</svg>