<?xml version="1.0" encoding="utf-8"?>
<svg version="1.1" xmlns:xlink="http://www.w3.org/1999/xlink" width="24px" height="24px" xmlns="http://www.w3.org/2000/svg">
  <g transform="matrix(1 0 0 1 -464 -60 )">
    <path d="M 476 60  C 482.72 60  488 65.28  488 72  C 488 78.72  482.72 84  476 84  C 469.28 84  464 78.72  464 72  C 464 65.28  469.28 60  476 60  Z " fill-rule="nonzero" fill="#02a7f0" stroke="none" />
    <path d="M 476 60.5  C 482.44 60.5  487.5 65.56  487.5 72  C 487.5 78.44  482.44 83.5  476 83.5  C 469.56 83.5  464.5 78.44  464.5 72  C 464.5 65.56  469.56 60.5  476 60.5  Z " stroke-width="1" stroke="#cccccc" fill="none" />
  </g>
</svg>