<?xml version="1.0" encoding="utf-8"?>
<svg version="1.1" xmlns:xlink="http://www.w3.org/1999/xlink" width="24px" height="24px" xmlns="http://www.w3.org/2000/svg">
  <g transform="matrix(1 0 0 1 -348 -59 )">
    <path d="M 360 59  C 366.72 59  372 64.28  372 71  C 372 77.72  366.72 83  360 83  C 353.28 83  348 77.72  348 71  C 348 64.28  353.28 59  360 59  Z " fill-rule="nonzero" fill="#f2f2f2" stroke="none" />
    <path d="M 360 59.5  C 366.44 59.5  371.5 64.56  371.5 71  C 371.5 77.44  366.44 82.5  360 82.5  C 353.56 82.5  348.5 77.44  348.5 71  C 348.5 64.56  353.56 59.5  360 59.5  Z " stroke-width="1" stroke="#cccccc" fill="none" />
  </g>
</svg>