<?xml version="1.0" encoding="utf-8"?>
<svg version="1.1" xmlns:xlink="http://www.w3.org/1999/xlink" width="12px" height="12px" viewBox="162 295  12 12" xmlns="http://www.w3.org/2000/svg">
  <path d="M 168 295  C 171.36 295  174 297.64  174 301  C 174 304.36  171.36 307  168 307  C 164.64 307  162 304.36  162 301  C 162 297.64  164.64 295  168 295  Z " fill-rule="nonzero" fill="#ffffff" stroke="none" />
  <path d="M 168 295.5  C 171.08 295.5  173.5 297.92  173.5 301  C 173.5 304.08  171.08 306.5  168 306.5  C 164.92 306.5  162.5 304.08  162.5 301  C 162.5 297.92  164.92 295.5  168 295.5  Z " stroke-width="1" stroke="#797979" fill="none" />
  <path d="M 168 304  C 166.32 304  165 302.68  165 301  C 165 299.32  166.32 298  168 298  C 169.68 298  171 299.32  171 301  C 171 302.68  169.68 304  168 304  " fill-rule="nonzero" fill="#797979" stroke="none" />
</svg>