<?xml version="1.0" encoding="utf-8"?>
<svg version="1.1" xmlns:xlink="http://www.w3.org/1999/xlink" width="12px" height="12px" viewBox="223 277.5  12 12" xmlns="http://www.w3.org/2000/svg">
  <path d="M 229 277.5  C 232.36 277.5  235 280.14  235 283.5  C 235 286.86  232.36 289.5  229 289.5  C 225.64 289.5  223 286.86  223 283.5  C 223 280.14  225.64 277.5  229 277.5  Z " fill-rule="nonzero" fill="#ffffff" stroke="none" />
  <path d="M 229 278  C 232.08 278  234.5 280.42  234.5 283.5  C 234.5 286.58  232.08 289  229 289  C 225.92 289  223.5 286.58  223.5 283.5  C 223.5 280.42  225.92 278  229 278  Z " stroke-width="1" stroke="#797979" fill="none" />
  <path d="M 229 286.5  C 227.32 286.5  226 285.18  226 283.5  C 226 281.82  227.32 280.5  229 280.5  C 230.68 280.5  232 281.82  232 283.5  C 232 285.18  230.68 286.5  229 286.5  " fill-rule="nonzero" fill="#797979" stroke="none" />
</svg>