<?xml version="1.0" encoding="utf-8"?>
<svg version="1.1" xmlns:xlink="http://www.w3.org/1999/xlink" width="12px" height="12px" viewBox="223 279  12 12" xmlns="http://www.w3.org/2000/svg">
  <path d="M 229 279  C 232.36 279  235 281.64  235 285  C 235 288.36  232.36 291  229 291  C 225.64 291  223 288.36  223 285  C 223 281.64  225.64 279  229 279  Z " fill-rule="nonzero" fill="#ffffff" stroke="none" />
  <path d="M 229 279.5  C 232.08 279.5  234.5 281.92  234.5 285  C 234.5 288.08  232.08 290.5  229 290.5  C 225.92 290.5  223.5 288.08  223.5 285  C 223.5 281.92  225.92 279.5  229 279.5  Z " stroke-width="1" stroke="#797979" fill="none" />
  <path d="M 229 288  C 227.32 288  226 286.68  226 285  C 226 283.32  227.32 282  229 282  C 230.68 282  232 283.32  232 285  C 232 286.68  230.68 288  229 288  " fill-rule="nonzero" fill="#797979" stroke="none" />
</svg>