<?xml version="1.0" encoding="utf-8"?>
<svg version="1.1" xmlns:xlink="http://www.w3.org/1999/xlink" width="12px" height="12px" viewBox="223 282.5  12 12" xmlns="http://www.w3.org/2000/svg">
  <path d="M 229 282.5  C 232.36 282.5  235 285.14  235 288.5  C 235 291.86  232.36 294.5  229 294.5  C 225.64 294.5  223 291.86  223 288.5  C 223 285.14  225.64 282.5  229 282.5  Z " fill-rule="nonzero" fill="#f0f0f0" stroke="none" />
  <path d="M 229 283  C 232.08 283  234.5 285.42  234.5 288.5  C 234.5 291.58  232.08 294  229 294  C 225.92 294  223.5 291.58  223.5 288.5  C 223.5 285.42  225.92 283  229 283  Z " stroke-width="1" stroke="#797979" fill="none" />
  <path d="M 229 291.5  C 227.32 291.5  226 290.18  226 288.5  C 226 286.82  227.32 285.5  229 285.5  C 230.68 285.5  232 286.82  232 288.5  C 232 290.18  230.68 291.5  229 291.5  " fill-rule="nonzero" fill="#797979" stroke="none" />
</svg>