<?xml version="1.0" encoding="utf-8"?>
<svg version="1.1" xmlns:xlink="http://www.w3.org/1999/xlink" width="12px" height="12px" viewBox="162 282.5  12 12" xmlns="http://www.w3.org/2000/svg">
  <path d="M 168 282.5  C 171.36 282.5  174 285.14  174 288.5  C 174 291.86  171.36 294.5  168 294.5  C 164.64 294.5  162 291.86  162 288.5  C 162 285.14  164.64 282.5  168 282.5  Z " fill-rule="nonzero" fill="#ffffff" stroke="none" />
  <path d="M 168 283  C 171.08 283  173.5 285.42  173.5 288.5  C 173.5 291.58  171.08 294  168 294  C 164.92 294  162.5 291.58  162.5 288.5  C 162.5 285.42  164.92 283  168 283  Z " stroke-width="1" stroke="#797979" fill="none" />
  <path d="M 168 291.5  C 166.32 291.5  165 290.18  165 288.5  C 165 286.82  166.32 285.5  168 285.5  C 169.68 285.5  171 286.82  171 288.5  C 171 290.18  169.68 291.5  168 291.5  " fill-rule="nonzero" fill="#797979" stroke="none" />
</svg>