<?xml version="1.0" encoding="utf-8"?>
<svg version="1.1" xmlns:xlink="http://www.w3.org/1999/xlink" width="12px" height="12px" viewBox="162 284  12 12" xmlns="http://www.w3.org/2000/svg">
  <path d="M 168 284  C 171.36 284  174 286.64  174 290  C 174 293.36  171.36 296  168 296  C 164.64 296  162 293.36  162 290  C 162 286.64  164.64 284  168 284  Z " fill-rule="nonzero" fill="#ffffff" stroke="none" />
  <path d="M 168 284.5  C 171.08 284.5  173.5 286.92  173.5 290  C 173.5 293.08  171.08 295.5  168 295.5  C 164.92 295.5  162.5 293.08  162.5 290  C 162.5 286.92  164.92 284.5  168 284.5  Z " stroke-width="1" stroke="#797979" fill="none" />
  <path d="M 168 293  C 166.32 293  165 291.68  165 290  C 165 288.32  166.32 287  168 287  C 169.68 287  171 288.32  171 290  C 171 291.68  169.68 293  168 293  " fill-rule="nonzero" fill="#797979" stroke="none" />
</svg>