<?xml version="1.0" encoding="utf-8"?>
<svg version="1.1" xmlns:xlink="http://www.w3.org/1999/xlink" width="104px" height="100px" xmlns="http://www.w3.org/2000/svg">
  <g transform="matrix(1 0 0 1 -378 -240 )">
    <path d="M 379 244  A 3 3 0 0 1 382 241 L 478 241  A 3 3 0 0 1 481 244 L 481 336  A 3 3 0 0 1 478 339 L 382 339  A 3 3 0 0 1 379 336 L 379 244  Z " fill-rule="nonzero" fill="#000000" stroke="none" fill-opacity="0.0196078431372549" />
    <path d="M 378.5 244  A 3.5 3.5 0 0 1 382 240.5 L 478 240.5  A 3.5 3.5 0 0 1 481.5 244 L 481.5 336  A 3.5 3.5 0 0 1 478 339.5 L 382 339.5  A 3.5 3.5 0 0 1 378.5 336 L 378.5 244  Z " stroke-width="1" stroke-dasharray="9,4" stroke="#000000" fill="none" stroke-opacity="0.149019607843137" stroke-dashoffset="0.5" />
  </g>
</svg>