<?xml version="1.0" encoding="utf-8"?>
<svg version="1.1" xmlns:xlink="http://www.w3.org/1999/xlink" width="975px" height="32px" xmlns="http://www.w3.org/2000/svg">
  <g transform="matrix(1 0 0 1 -303 -425 )">
    <path d="M 304 429  A 3 3 0 0 1 307 426 L 1274 426  A 3 3 0 0 1 1277 429 L 1277 453  A 3 3 0 0 1 1274 456 L 307 456  A 3 3 0 0 1 304 453 L 304 429  Z " fill-rule="nonzero" fill="#ffffff" stroke="none" />
    <path d="M 303.5 429  A 3.5 3.5 0 0 1 307 425.5 L 1274 425.5  A 3.5 3.5 0 0 1 1277.5 429 L 1277.5 453  A 3.5 3.5 0 0 1 1274 456.5 L 307 456.5  A 3.5 3.5 0 0 1 303.5 453 L 303.5 429  Z " stroke-width="1" stroke-dasharray="9,4" stroke="#d9d9d9" fill="none" stroke-dashoffset="0.5" />
  </g>
</svg>