<?xml version="1.0" encoding="utf-8"?>
<svg version="1.1" xmlns:xlink="http://www.w3.org/1999/xlink" width="30px" height="30px" xmlns="http://www.w3.org/2000/svg">
  <g transform="matrix(1 0 0 1 -145 -47 )">
    <path d="M 160 47  C 168.4 47  175 53.6  175 62  C 175 70.4  168.4 77  160 77  C 151.6 77  145 70.4  145 62  C 145 53.6  151.6 47  160 47  Z " fill-rule="nonzero" fill="#ffffff" stroke="none" />
    <path d="M 160 47.5  C 168.12 47.5  174.5 53.88  174.5 62  C 174.5 70.12  168.12 76.5  160 76.5  C 151.88 76.5  145.5 70.12  145.5 62  C 145.5 53.88  151.88 47.5  160 47.5  Z " stroke-width="1" stroke="#d9001b" fill="none" />
  </g>
</svg>