<?xml version="1.0" encoding="utf-8"?>
<svg version="1.1" xmlns:xlink="http://www.w3.org/1999/xlink" width="18px" height="18px" xmlns="http://www.w3.org/2000/svg">
  <g transform="matrix(1 0 0 1 -393 -9 )">
    <path d="M 14.02734375 10.27734375  C 14.17578125 10.12890625  14.25 9.953125  14.25 9.75  L 14.25 8.25  C 14.25 8.046875  14.17578125 7.87109375  14.02734375 7.72265625  C 13.87890625 7.57421875  13.703125 7.5  13.5 7.5  L 10.5 7.5  L 10.5 4.5  C 10.5 4.296875  10.42578125 4.12109375  10.27734375 3.97265625  C 10.12890625 3.82421875  9.953125 3.75  9.75 3.75  L 8.25 3.75  C 8.046875 3.75  7.87109375 3.82421875  7.72265625 3.97265625  C 7.57421875 4.12109375  7.5 4.296875  7.5 4.5  L 7.5 7.5  L 4.5 7.5  C 4.296875 7.5  4.12109375 7.57421875  3.97265625 7.72265625  C 3.82421875 7.87109375  3.75 8.046875  3.75 8.25  L 3.75 9.75  C 3.75 9.953125  3.82421875 10.12890625  3.97265625 10.27734375  C 4.12109375 10.42578125  4.296875 10.5  4.5 10.5  L 7.5 10.5  L 7.5 13.5  C 7.5 13.703125  7.57421875 13.87890625  7.72265625 14.02734375  C 7.87109375 14.17578125  8.046875 14.25  8.25 14.25  L 9.75 14.25  C 9.953125 14.25  10.12890625 14.17578125  10.27734375 14.02734375  C 10.42578125 13.87890625  10.5 13.703125  10.5 13.5  L 10.5 10.5  L 13.5 10.5  C 13.703125 10.5  13.87890625 10.42578125  14.02734375 10.27734375  Z M 16.79296875 4.482421875  C 17.59765625 5.861328125  18 7.3671875  18 9  C 18 10.6328125  17.59765625 12.138671875  16.79296875 13.517578125  C 15.98828125 14.896484375  14.896484375 15.98828125  13.517578125 16.79296875  C 12.138671875 17.59765625  10.6328125 18  9 18  C 7.3671875 18  5.861328125 17.59765625  4.482421875 16.79296875  C 3.103515625 15.98828125  2.01171875 14.896484375  1.20703125 13.517578125  C 0.40234375 12.138671875  0 10.6328125  0 9  C 0 7.3671875  0.40234375 5.861328125  1.20703125 4.482421875  C 2.01171875 3.103515625  3.103515625 2.01171875  4.482421875 1.20703125  C 5.861328125 0.402343749999998  7.3671875 0  9 0  C 10.6328125 0  12.138671875 0.402343749999998  13.517578125 1.20703125  C 14.896484375 2.01171875  15.98828125 3.103515625  16.79296875 4.482421875  Z " fill-rule="nonzero" fill="#0000ff" stroke="none" transform="matrix(1 0 0 1 393 9 )" />
  </g>
</svg>