<?xml version="1.0" encoding="utf-8"?>
<svg version="1.1" xmlns:xlink="http://www.w3.org/1999/xlink" width="40px" height="40px" xmlns="http://www.w3.org/2000/svg">
  <g transform="matrix(1 0 0 1 -855 -67 )">
    <path d="M 875 67  C 886.2 67  895 75.8  895 87  C 895 98.2  886.2 107  875 107  C 863.8 107  855 98.2  855 87  C 855 75.8  863.8 67  875 67  Z " fill-rule="nonzero" fill="#ffffff" stroke="none" />
    <path d="M 875 67.5  C 885.92 67.5  894.5 76.08  894.5 87  C 894.5 97.92  885.92 106.5  875 106.5  C 864.08 106.5  855.5 97.92  855.5 87  C 855.5 76.08  864.08 67.5  875 67.5  Z " stroke-width="1" stroke="#d9001b" fill="none" />
  </g>
</svg>