<?xml version="1.0" encoding="utf-8"?>
<svg version="1.1" xmlns:xlink="http://www.w3.org/1999/xlink" width="12px" height="12px" viewBox="21 141  12 12" xmlns="http://www.w3.org/2000/svg">
  <path d="M 27 141  C 30.36 141  33 143.64  33 147  C 33 150.36  30.36 153  27 153  C 23.64 153  21 150.36  21 147  C 21 143.64  23.64 141  27 141  Z " fill-rule="nonzero" fill="#f0f0f0" stroke="none" />
  <path d="M 27 141.5  C 30.08 141.5  32.5 143.92  32.5 147  C 32.5 150.08  30.08 152.5  27 152.5  C 23.92 152.5  21.5 150.08  21.5 147  C 21.5 143.92  23.92 141.5  27 141.5  Z " stroke-width="1" stroke="#797979" fill="none" />
  <path d="M 27 150  C 25.32 150  24 148.68  24 147  C 24 145.32  25.32 144  27 144  C 28.68 144  30 145.32  30 147  C 30 148.68  28.68 150  27 150  " fill-rule="nonzero" fill="#797979" stroke="none" />
</svg>