<?xml version="1.0" encoding="utf-8"?>
<svg version="1.1" xmlns:xlink="http://www.w3.org/1999/xlink" width="18px" height="18px" xmlns="http://www.w3.org/2000/svg">
  <g transform="matrix(1 0 0 1 -530 -64 )">
    <path d="M 17.750390625 16.7263157894737  C 18.080859375 16.3964912280702  18.080859375 15.8631578947368  17.75390625 15.5333333333333  L 14.248828125 12.0350877192982  C 14.090625 11.8771929824561  13.876171875 11.7894736842105  13.651171875 11.7894736842105  L 13.078125 11.7894736842105  C 14.0484375 10.5508771929825  14.625 8.99298245614035  14.625 7.29824561403509  C 14.625 3.26666666666667  11.351953125 0  7.3125 0  C 3.273046875 0  0 3.26666666666667  0 7.29824561403509  C 0 11.3298245614035  3.273046875 14.5964912280702  7.3125 14.5964912280702  C 9.010546875 14.5964912280702  10.571484375 14.0210526315789  11.8125 13.0526315789474  L 11.8125 13.6245614035088  C 11.8125 13.8491228070175  11.900390625 14.0631578947368  12.05859375 14.2210526315789  L 15.563671875 17.719298245614  C 15.894140625 18.0491228070175  16.428515625 18.0491228070175  16.75546875 17.719298245614  L 17.750390625 16.7263157894737  Z M 11.8125 7.29824561403509  C 11.8125 9.77894736842105  9.8015625 11.7894736842105  7.3125 11.7894736842105  C 4.826953125 11.7894736842105  2.8125 9.78245614035088  2.8125 7.29824561403509  C 2.8125 4.81754385964912  4.8234375 2.80701754385965  7.3125 2.80701754385965  C 9.798046875 2.80701754385965  11.8125 4.8140350877193  11.8125 7.29824561403509  Z " fill-rule="nonzero" fill="#d7d7d7" stroke="none" transform="matrix(1 0 0 1 530 64 )" />
  </g>
</svg>