<?xml version="1.0" encoding="utf-8"?>
<svg version="1.1" xmlns:xlink="http://www.w3.org/1999/xlink" width="40px" height="40px" xmlns="http://www.w3.org/2000/svg">
  <g transform="matrix(1 0 0 1 -1107 -107 )">
    <path d="M 1127 107  C 1138.2 107  1147 115.8  1147 127  C 1147 138.2  1138.2 147  1127 147  C 1115.8 147  1107 138.2  1107 127  C 1107 115.8  1115.8 107  1127 107  Z " fill-rule="nonzero" fill="#ffffff" stroke="none" />
    <path d="M 1127 107.5  C 1137.92 107.5  1146.5 116.08  1146.5 127  C 1146.5 137.92  1137.92 146.5  1127 146.5  C 1116.08 146.5  1107.5 137.92  1107.5 127  C 1107.5 116.08  1116.08 107.5  1127 107.5  Z " stroke-width="1" stroke="#d9001b" fill="none" />
  </g>
</svg>