<?xml version="1.0" encoding="utf-8"?>
<svg version="1.1" xmlns:xlink="http://www.w3.org/1999/xlink" width="23px" height="16px" xmlns="http://www.w3.org/2000/svg">
  <g transform="matrix(1 0 0 1 -252 -89 )">
    <path d="M 14.10546875 9.8125  C 15.3172075320513 8.96955128205128  15.9230769230769 7.9551282051282  15.9230769230769 6.76923076923077  C 15.9230769230769 5.58333333333333  15.3172075320513 4.56891025641026  14.10546875 3.72596153846154  C 12.8937299679487 2.88301282051282  11.4354967948718 2.46153846153846  9.73076923076923 2.46153846153846  C 8.02604166666667 2.46153846153846  6.56780849358974 2.88301282051282  5.35606971153846 3.72596153846154  C 4.14433092948718 4.56891025641026  3.53846153846154 5.58333333333333  3.53846153846154 6.76923076923077  C 3.53846153846154 7.9551282051282  4.14433092948718 8.96955128205128  5.35606971153846 9.8125  C 6.56780849358974 10.6554487179487  8.02604166666667 11.0769230769231  9.73076923076923 11.0769230769231  C 11.4354967948718 11.0769230769231  12.8937299679487 10.6554487179487  14.10546875 9.8125  Z M 22.4885817307692 13.9038461538462  C 22.8295272435897 14.1410256410256  23 14.4294871794872  23 14.7692307692308  C 23 15.1025641025641  22.8249198717949 15.3910256410256  22.4747596153846 15.6346153846154  C 22.1245993589744 15.8782051282051  21.7099358974359 16  21.2307692307692 16  C 20.7331730769231 16  20.3185096153846 15.8782051282051  19.9867788461538 15.6346153846154  L 15.2457932692308 12.3461538461538  C 13.5963541666667 13.1410256410256  11.7580128205128 13.5384615384615  9.73076923076923 13.5384615384615  C 8.4130608974359 13.5384615384615  7.15294471153846 13.3605769230769  5.95042067307692 13.0048076923077  C 4.74789663461539 12.6490384615385  3.71123798076923 12.1682692307692  2.84044471153846 11.5625  C 1.96965144230769 10.9567307692308  1.27854567307692 10.2355769230769  0.767127403846154 9.39903846153846  C 0.255709134615385 8.5625  0 7.68589743589743  0 6.76923076923077  C 0 5.8525641025641  0.255709134615385 4.97596153846154  0.767127403846154 4.13942307692308  C 1.27854567307692 3.30288461538462  1.96965144230769 2.58173076923077  2.84044471153846 1.97596153846154  C 3.71123798076923 1.37019230769231  4.74789663461539 0.889423076923077  5.95042067307692 0.533653846153847  C 7.15294471153846 0.177884615384615  8.4130608974359 0  9.73076923076923 0  C 11.0484775641026 0  12.30859375 0.177884615384615  13.5111177884615 0.533653846153847  C 14.7136418269231 0.889423076923077  15.7503004807692 1.37019230769231  16.62109375 1.97596153846154  C 17.4918870192308 2.58173076923077  18.1829927884615 3.30288461538462  18.6944110576923 4.13942307692308  C 19.2058293269231 4.97596153846154  19.4615384615385 5.8525641025641  19.4615384615385 6.76923076923077  C 19.4615384615385 8.17948717948718  18.8902243589744 9.45833333333333  17.7475961538462 10.6057692307692  L 22.4885817307692 13.9038461538462  Z " fill-rule="nonzero" fill="#7f7f7f" stroke="none" transform="matrix(1 0 0 1 252 89 )" />
  </g>
</svg>