<?xml version="1.0" encoding="utf-8"?>
<svg version="1.1" xmlns:xlink="http://www.w3.org/1999/xlink" width="10px" height="16px" xmlns="http://www.w3.org/2000/svg">
  <g transform="matrix(1 0 0 1 -447 -81 )">
    <path d="M 6.1328125 9.8125  C 6.65965544871795 8.96955128205128  6.92307692307692 7.9551282051282  6.92307692307692 6.76923076923077  C 6.92307692307692 5.58333333333333  6.65965544871795 4.56891025641026  6.1328125 3.72596153846154  C 5.60596955128205 2.88301282051282  4.97195512820513 2.46153846153846  4.23076923076923 2.46153846153846  C 3.48958333333333 2.46153846153846  2.85556891025641 2.88301282051282  2.32872596153846 3.72596153846154  C 1.80188301282051 4.56891025641026  1.53846153846154 5.58333333333333  1.53846153846154 6.76923076923077  C 1.53846153846154 7.9551282051282  1.80188301282051 8.96955128205128  2.32872596153846 9.8125  C 2.85556891025641 10.6554487179487  3.48958333333333 11.0769230769231  4.23076923076923 11.0769230769231  C 4.97195512820513 11.0769230769231  5.60596955128205 10.6554487179487  6.1328125 9.8125  Z M 9.77764423076923 13.9038461538462  C 9.92588141025641 14.1410256410256  10 14.4294871794872  10 14.7692307692308  C 10 15.1025641025641  9.92387820512821 15.3910256410256  9.77163461538461 15.6346153846154  C 9.61939102564103 15.8782051282051  9.43910256410257 16  9.23076923076923 16  C 9.01442307692308 16  8.83413461538461 15.8782051282051  8.68990384615385 15.6346153846154  L 6.62860576923077 12.3461538461538  C 5.91145833333333 13.1410256410256  5.11217948717949 13.5384615384615  4.23076923076923 13.5384615384615  C 3.65785256410256 13.5384615384615  3.10997596153846 13.3605769230769  2.58713942307692 13.0048076923077  C 2.06430288461538 12.6490384615385  1.61358173076923 12.1682692307692  1.23497596153846 11.5625  C 0.856370192307692 10.9567307692308  0.555889423076923 10.2355769230769  0.333533653846154 9.39903846153846  C 0.111177884615385 8.5625  0 7.68589743589743  0 6.76923076923077  C 0 5.8525641025641  0.111177884615385 4.97596153846154  0.333533653846154 4.13942307692308  C 0.555889423076923 3.30288461538461  0.856370192307692 2.58173076923077  1.23497596153846 1.97596153846154  C 1.61358173076923 1.37019230769231  2.06430288461538 0.889423076923077  2.58713942307692 0.533653846153847  C 3.10997596153846 0.177884615384615  3.65785256410256 0  4.23076923076923 0  C 4.8036858974359 0  5.3515625 0.177884615384615  5.87439903846154 0.533653846153847  C 6.39723557692308 0.889423076923077  6.84795673076923 1.37019230769231  7.2265625 1.97596153846154  C 7.60516826923077 2.58173076923077  7.90564903846154 3.30288461538461  8.12800480769231 4.13942307692308  C 8.35036057692308 4.97596153846154  8.46153846153846 5.8525641025641  8.46153846153846 6.76923076923077  C 8.46153846153846 8.17948717948718  8.21314102564103 9.45833333333333  7.71634615384615 10.6057692307692  L 9.77764423076923 13.9038461538462  Z " fill-rule="nonzero" fill="#7f7f7f" stroke="none" transform="matrix(1 0 0 1 447 81 )" />
  </g>
</svg>