<?xml version="1.0" encoding="utf-8"?>
<svg version="1.1" xmlns:xlink="http://www.w3.org/1999/xlink" width="1077px" height="114px" xmlns="http://www.w3.org/2000/svg">
  <g transform="matrix(1 0 0 1 -281 -126 )">
    <path d="M 0.5 0  L 0.5 112.477657935285  C 0 112.770169491525  0.6680714957667 113  1.51834430856068 113.5  L 537.198625426901 113.5  L 1074.48165569144 113  C 1075.33192850423 113  1076 112.770169491525  1076.5 112.477657935285  L 1076.5 0  L 0.5 0  Z " fill-rule="nonzero" fill="#ffffff" stroke="none" transform="matrix(1 0 0 1 281 126 )" />
    <path d="M 0.5 0  L 0.5 112.477657935285  C 0 112.770169491525  0.6680714957667 113  1.51834430856068 113.5  L 537.198625426901 113.5  L 1074.48165569144 113  C 1075.33192850423 113  1076 112.770169491525  1076.5 112.477657935285  L 1076.5 0  " stroke-width="1" stroke="#e9e9e9" fill="none" transform="matrix(1 0 0 1 281 126 )" />
  </g>
</svg>