<?xml version="1.0" encoding="utf-8"?>
<svg version="1.1" xmlns:xlink="http://www.w3.org/1999/xlink" width="1026px" height="32px" xmlns="http://www.w3.org/2000/svg">
  <g transform="matrix(1 0 0 1 -306 -436 )">
    <path d="M 307 440  A 3 3 0 0 1 310 437 L 1328 437  A 3 3 0 0 1 1331 440 L 1331 464  A 3 3 0 0 1 1328 467 L 310 467  A 3 3 0 0 1 307 464 L 307 440  Z " fill-rule="nonzero" fill="#ffffff" stroke="none" />
    <path d="M 306.5 440  A 3.5 3.5 0 0 1 310 436.5 L 1328 436.5  A 3.5 3.5 0 0 1 1331.5 440 L 1331.5 464  A 3.5 3.5 0 0 1 1328 467.5 L 310 467.5  A 3.5 3.5 0 0 1 306.5 464 L 306.5 440  Z " stroke-width="1" stroke-dasharray="9,4" stroke="#d9d9d9" fill="none" stroke-dashoffset="0.5" />
  </g>
</svg>