<?xml version="1.0" encoding="utf-8"?>
<svg version="1.1" xmlns:xlink="http://www.w3.org/1999/xlink" width="19px" height="16px" xmlns="http://www.w3.org/2000/svg">
  <g transform="matrix(1 0 0 1 -771 -85 )">
    <path d="M 11.65234375 9.8125  C 12.6533453525641 8.96955128205128  13.1538461538462 7.9551282051282  13.1538461538462 6.76923076923077  C 13.1538461538462 5.58333333333333  12.6533453525641 4.56891025641026  11.65234375 3.72596153846154  C 10.6513421474359 2.88301282051282  9.44671474358974 2.46153846153846  8.03846153846154 2.46153846153846  C 6.63020833333333 2.46153846153846  5.42558092948718 2.88301282051282  4.42457932692308 3.72596153846154  C 3.42357772435897 4.56891025641026  2.92307692307692 5.58333333333333  2.92307692307692 6.76923076923077  C 2.92307692307692 7.9551282051282  3.42357772435897 8.96955128205128  4.42457932692308 9.8125  C 5.42558092948718 10.6554487179487  6.63020833333333 11.0769230769231  8.03846153846154 11.0769230769231  C 9.44671474358974 11.0769230769231  10.6513421474359 10.6554487179487  11.65234375 9.8125  Z M 18.5775240384615 13.9038461538462  C 18.8591746794872 14.1410256410256  19 14.4294871794872  19 14.7692307692308  C 19 15.1025641025641  18.8553685897436 15.3910256410256  18.5661057692308 15.6346153846154  C 18.2768429487179 15.8782051282051  17.9342948717949 16  17.5384615384615 16  C 17.1274038461538 16  16.7848557692308 15.8782051282051  16.5108173076923 15.6346153846154  L 12.5943509615385 12.3461538461538  C 11.2317708333333 13.1410256410256  9.71314102564103 13.5384615384615  8.03846153846154 13.5384615384615  C 6.94991987179487 13.5384615384615  5.90895432692308 13.3605769230769  4.91556490384615 13.0048076923077  C 3.92217548076923 12.6490384615385  3.06580528846154 12.1682692307692  2.34645432692308 11.5625  C 1.62710336538462 10.9567307692308  1.05618990384615 10.2355769230769  0.633713942307692 9.39903846153846  C 0.211237980769231 8.5625  0 7.68589743589743  0 6.76923076923077  C 0 5.8525641025641  0.211237980769231 4.97596153846154  0.633713942307692 4.13942307692308  C 1.05618990384615 3.30288461538462  1.62710336538462 2.58173076923077  2.34645432692308 1.97596153846154  C 3.06580528846154 1.37019230769231  3.92217548076923 0.889423076923077  4.91556490384615 0.533653846153847  C 5.90895432692308 0.177884615384615  6.94991987179487 0  8.03846153846154 0  C 9.12700320512821 0  10.16796875 0.177884615384615  11.1613581730769 0.533653846153847  C 12.1547475961538 0.889423076923077  13.0111177884615 1.37019230769231  13.73046875 1.97596153846154  C 14.4498197115385 2.58173076923077  15.0207331730769 3.30288461538462  15.4432091346154 4.13942307692308  C 15.8656850961538 4.97596153846154  16.0769230769231 5.8525641025641  16.0769230769231 6.76923076923077  C 16.0769230769231 8.17948717948718  15.604967948718 9.45833333333333  14.6610576923077 10.6057692307692  L 18.5775240384615 13.9038461538462  Z " fill-rule="nonzero" fill="#7f7f7f" stroke="none" transform="matrix(1 0 0 1 771 85 )" />
  </g>
</svg>